<svg width="99" height="27" viewBox="0 0 99 27" fill="none" xmlns="http://www.w3.org/2000/svg">
<path d="M22.6752 5.8C23.1978 5.8 23.6352 5.86933 23.9872 6.008C24.3445 6.14133 24.6298 6.328 24.8432 6.568C25.0565 6.808 25.2112 7.08267 25.3072 7.392C25.4032 7.70133 25.4512 8.02933 25.4512 8.376C25.4512 8.72267 25.4005 9.05333 25.2992 9.368C25.1978 9.68267 25.0352 9.96267 24.8112 10.208C24.5925 10.4533 24.3072 10.648 23.9552 10.792C23.6032 10.9307 23.1765 11 22.6752 11H20.9872V5.8H22.6752ZM21.6272 10.4H22.6752C23.0965 10.4 23.4432 10.3413 23.7152 10.224C23.9925 10.1067 24.2112 9.952 24.3712 9.76C24.5312 9.56267 24.6432 9.344 24.7072 9.104C24.7765 8.864 24.8112 8.62133 24.8112 8.376C24.8112 8.13067 24.7765 7.89067 24.7072 7.656C24.6432 7.42133 24.5312 7.21067 24.3712 7.024C24.2112 6.832 23.9925 6.68 23.7152 6.568C23.4432 6.456 23.0965 6.4 22.6752 6.4H21.6272V10.4ZM29.207 9.712H29.807C29.7643 9.97333 29.6683 10.208 29.519 10.416C29.375 10.6187 29.183 10.7813 28.943 10.904C28.7083 11.0213 28.4363 11.08 28.127 11.08C27.7536 11.08 27.4176 10.992 27.119 10.816C26.8203 10.6347 26.583 10.3893 26.407 10.08C26.2363 9.76533 26.151 9.408 26.151 9.008C26.151 8.608 26.2336 8.25067 26.399 7.936C26.5696 7.62133 26.8016 7.37333 27.095 7.192C27.3883 7.01067 27.719 6.92 28.087 6.92C28.4763 6.92 28.8043 7.008 29.071 7.184C29.343 7.35467 29.543 7.608 29.671 7.944C29.8043 8.27467 29.8576 8.68267 29.831 9.168H26.791C26.8176 9.42933 26.8896 9.65867 27.007 9.856C27.1243 10.0533 27.279 10.208 27.471 10.32C27.663 10.4267 27.8816 10.48 28.127 10.48C28.399 10.48 28.6283 10.4107 28.815 10.272C29.007 10.128 29.1376 9.94133 29.207 9.712ZM28.111 7.52C27.7803 7.52 27.503 7.616 27.279 7.808C27.055 8 26.9056 8.26133 26.831 8.592H29.175C29.1536 8.24 29.039 7.97333 28.831 7.792C28.6283 7.61067 28.3883 7.52 28.111 7.52ZM30.4642 9.712H31.0562C31.0722 9.94133 31.1576 10.128 31.3122 10.272C31.4722 10.416 31.7016 10.488 32.0002 10.488C32.1816 10.488 32.3229 10.464 32.4242 10.416C32.5309 10.368 32.6082 10.304 32.6562 10.224C32.7042 10.1387 32.7282 10.0453 32.7282 9.944C32.7282 9.82133 32.6962 9.72533 32.6322 9.656C32.5736 9.58133 32.4909 9.52 32.3842 9.472C32.2829 9.424 32.1656 9.37867 32.0322 9.336C31.8776 9.27733 31.7176 9.216 31.5522 9.152C31.3922 9.08267 31.2402 9.00267 31.0962 8.912C30.9576 8.816 30.8456 8.70133 30.7602 8.568C30.6749 8.42933 30.6322 8.264 30.6322 8.072C30.6322 7.912 30.6642 7.76267 30.7282 7.624C30.7922 7.48 30.8829 7.35733 31.0002 7.256C31.1229 7.14933 31.2642 7.06667 31.4242 7.008C31.5896 6.94933 31.7709 6.92 31.9682 6.92C32.2349 6.92 32.4589 6.97333 32.6402 7.08C32.8269 7.18667 32.9682 7.33867 33.0642 7.536C33.1656 7.728 33.2189 7.952 33.2242 8.208H32.6722C32.6349 7.968 32.5576 7.79467 32.4402 7.688C32.3282 7.576 32.1656 7.52 31.9522 7.52C31.7336 7.52 31.5656 7.568 31.4482 7.664C31.3309 7.76 31.2722 7.888 31.2722 8.048C31.2722 8.16533 31.3149 8.264 31.4002 8.344C31.4856 8.41867 31.5949 8.488 31.7282 8.552C31.8669 8.61067 32.0136 8.672 32.1682 8.736C32.3229 8.8 32.4722 8.864 32.6162 8.928C32.7602 8.992 32.8882 9.06667 33.0002 9.152C33.1122 9.23733 33.2002 9.344 33.2642 9.472C33.3336 9.59467 33.3682 9.74933 33.3682 9.936C33.3682 10.16 33.3149 10.36 33.2082 10.536C33.1069 10.7067 32.9549 10.84 32.7522 10.936C32.5549 11.032 32.3122 11.08 32.0242 11.08C31.7629 11.08 31.5389 11.048 31.3522 10.984C31.1709 10.9147 31.0189 10.8267 30.8962 10.72C30.7736 10.608 30.6776 10.4907 30.6082 10.368C30.5442 10.2453 30.5016 10.1253 30.4802 10.008C30.4589 9.89067 30.4536 9.792 30.4642 9.712ZM37.0195 9.712H37.6195C37.5768 9.97333 37.4808 10.208 37.3315 10.416C37.1875 10.6187 36.9955 10.7813 36.7555 10.904C36.5208 11.0213 36.2488 11.08 35.9395 11.08C35.5661 11.08 35.2301 10.992 34.9315 10.816C34.6328 10.6347 34.3955 10.3893 34.2195 10.08C34.0488 9.76533 33.9635 9.408 33.9635 9.008C33.9635 8.608 34.0461 8.25067 34.2115 7.936C34.3821 7.62133 34.6141 7.37333 34.9075 7.192C35.2008 7.01067 35.5315 6.92 35.8995 6.92C36.2888 6.92 36.6168 7.008 36.8835 7.184C37.1555 7.35467 37.3555 7.608 37.4835 7.944C37.6168 8.27467 37.6701 8.68267 37.6435 9.168H34.6035C34.6301 9.42933 34.7021 9.65867 34.8195 9.856C34.9368 10.0533 35.0915 10.208 35.2835 10.32C35.4755 10.4267 35.6941 10.48 35.9395 10.48C36.2115 10.48 36.4408 10.4107 36.6275 10.272C36.8195 10.128 36.9501 9.94133 37.0195 9.712ZM35.9235 7.52C35.5928 7.52 35.3155 7.616 35.0915 7.808C34.8675 8 34.7181 8.26133 34.6435 8.592H36.9875C36.9661 8.24 36.8515 7.97333 36.6435 7.792C36.4408 7.61067 36.2008 7.52 35.9235 7.52ZM38.4687 7H39.1087V11H38.4687V7ZM40.4847 6.92C40.6981 6.92 40.8901 6.952 41.0607 7.016C41.2314 7.08 41.3754 7.17333 41.4927 7.296C41.6101 7.41867 41.7007 7.568 41.7647 7.744C41.8287 7.91467 41.8607 8.10933 41.8607 8.328V11H41.2207V8.488C41.2207 8.17867 41.1487 7.94667 41.0047 7.792C40.8607 7.63733 40.6447 7.56 40.3567 7.56C40.1381 7.56 39.9354 7.616 39.7487 7.728C39.5621 7.84 39.4074 7.99467 39.2847 8.192C39.1674 8.384 39.0954 8.608 39.0687 8.864L39.0607 8.4C39.0874 8.176 39.1407 7.97333 39.2207 7.792C39.3061 7.61067 39.4101 7.456 39.5327 7.328C39.6607 7.19467 39.8047 7.09333 39.9647 7.024C40.1301 6.95467 40.3034 6.92 40.4847 6.92ZM44.3643 10.448H44.1723L45.3963 7H46.0923L44.5723 11H43.9723L42.4603 7H43.1563L44.3643 10.448ZM48.3922 11.08C48.0509 11.08 47.7309 10.9973 47.4322 10.832C47.1336 10.6667 46.8909 10.4293 46.7042 10.12C46.5229 9.80533 46.4322 9.43467 46.4322 9.008C46.4322 8.58133 46.5229 8.21333 46.7042 7.904C46.8909 7.58933 47.1336 7.34667 47.4322 7.176C47.7309 7.00533 48.0509 6.92 48.3922 6.92C48.7336 6.92 49.0509 7.00533 49.3442 7.176C49.6429 7.34667 49.8829 7.58933 50.0642 7.904C50.2456 8.21333 50.3362 8.58133 50.3362 9.008C50.3362 9.43467 50.2456 9.80533 50.0642 10.12C49.8829 10.4293 49.6429 10.6667 49.3442 10.832C49.0509 10.9973 48.7336 11.08 48.3922 11.08ZM48.3922 10.48C48.6162 10.48 48.8269 10.424 49.0242 10.312C49.2216 10.2 49.3816 10.0347 49.5042 9.816C49.6322 9.592 49.6962 9.32267 49.6962 9.008C49.6962 8.69333 49.6322 8.42667 49.5042 8.208C49.3816 7.984 49.2216 7.81333 49.0242 7.696C48.8269 7.57867 48.6162 7.52 48.3922 7.52C48.1682 7.52 47.9549 7.57867 47.7522 7.696C47.5549 7.808 47.3922 7.976 47.2642 8.2C47.1362 8.41867 47.0722 8.688 47.0722 9.008C47.0722 9.32267 47.1336 9.592 47.2562 9.816C47.3842 10.0347 47.5496 10.2 47.7522 10.312C47.9549 10.424 48.1682 10.48 48.3922 10.48ZM51.2284 5.4H51.8684V11H51.2284V5.4ZM54.5042 11.08C54.1842 11.08 53.8908 10.992 53.6242 10.816C53.3628 10.6347 53.1548 10.3893 53.0002 10.08C52.8455 9.76533 52.7682 9.408 52.7682 9.008C52.7682 8.608 52.8428 8.25067 52.9922 7.936C53.1415 7.62133 53.3468 7.37333 53.6082 7.192C53.8695 7.01067 54.1682 6.92 54.5042 6.92C54.8028 6.92 55.0455 6.976 55.2322 7.088C55.4242 7.19467 55.5708 7.344 55.6722 7.536C55.7735 7.728 55.8428 7.94933 55.8802 8.2C55.9228 8.45067 55.9442 8.72 55.9442 9.008C55.9442 9.21067 55.9228 9.432 55.8802 9.672C55.8375 9.90667 55.7628 10.1333 55.6562 10.352C55.5548 10.5653 55.4108 10.7413 55.2242 10.88C55.0375 11.0133 54.7975 11.08 54.5042 11.08ZM54.6642 10.472C54.9362 10.472 55.1602 10.4053 55.3362 10.272C55.5175 10.1387 55.6508 9.96267 55.7362 9.744C55.8215 9.52 55.8642 9.27467 55.8642 9.008C55.8642 8.71467 55.8188 8.45867 55.7282 8.24C55.6428 8.016 55.5095 7.84267 55.3282 7.72C55.1522 7.592 54.9308 7.528 54.6642 7.528C54.2642 7.528 53.9548 7.66933 53.7362 7.952C53.5175 8.22933 53.4082 8.58133 53.4082 9.008C53.4082 9.29067 53.4615 9.544 53.5682 9.768C53.6802 9.98667 53.8295 10.16 54.0162 10.288C54.2082 10.4107 54.4242 10.472 54.6642 10.472ZM55.8642 5.4H56.5042V11H55.9202C55.9095 10.8827 55.8962 10.744 55.8802 10.584C55.8695 10.424 55.8642 10.296 55.8642 10.2V5.4ZM58.456 5.4V6.176H57.624V5.4H58.456ZM57.72 7H58.36V11H57.72V7ZM60.9651 11.08C60.6451 11.08 60.3518 10.992 60.0851 10.816C59.8238 10.6347 59.6158 10.3893 59.4611 10.08C59.3064 9.76533 59.2291 9.408 59.2291 9.008C59.2291 8.608 59.3038 8.25067 59.4531 7.936C59.6024 7.62133 59.8078 7.37333 60.0691 7.192C60.3304 7.01067 60.6291 6.92 60.9651 6.92C61.2638 6.92 61.5064 6.976 61.6931 7.088C61.8851 7.19467 62.0318 7.344 62.1331 7.536C62.2344 7.728 62.3038 7.94933 62.3411 8.2C62.3838 8.45067 62.4051 8.72 62.4051 9.008C62.4051 9.21067 62.3838 9.432 62.3411 9.672C62.2984 9.90667 62.2238 10.1333 62.1171 10.352C62.0158 10.5653 61.8718 10.7413 61.6851 10.88C61.4984 11.0133 61.2584 11.08 60.9651 11.08ZM61.1251 10.472C61.3971 10.472 61.6211 10.4053 61.7971 10.272C61.9784 10.1387 62.1118 9.96267 62.1971 9.744C62.2824 9.52 62.3251 9.27467 62.3251 9.008C62.3251 8.71467 62.2798 8.45867 62.1891 8.24C62.1038 8.016 61.9704 7.84267 61.7891 7.72C61.6131 7.592 61.3918 7.528 61.1251 7.528C60.7251 7.528 60.4158 7.66933 60.1971 7.952C59.9784 8.22933 59.8691 8.58133 59.8691 9.008C59.8691 9.29067 59.9224 9.544 60.0291 9.768C60.1411 9.98667 60.2904 10.16 60.4771 10.288C60.6691 10.4107 60.8851 10.472 61.1251 10.472ZM62.3251 5.4H62.9651V11H62.3811C62.3704 10.8827 62.3571 10.744 62.3411 10.584C62.3304 10.424 62.3251 10.296 62.3251 10.2V5.4ZM65.861 11.08C65.5196 11.08 65.1996 10.9973 64.901 10.832C64.6023 10.6667 64.3596 10.4293 64.173 10.12C63.9916 9.80533 63.901 9.43467 63.901 9.008C63.901 8.58133 63.9916 8.21333 64.173 7.904C64.3596 7.58933 64.6023 7.34667 64.901 7.176C65.1996 7.00533 65.5196 6.92 65.861 6.92C66.2023 6.92 66.5196 7.00533 66.813 7.176C67.1116 7.34667 67.3516 7.58933 67.533 7.904C67.7143 8.21333 67.805 8.58133 67.805 9.008C67.805 9.43467 67.7143 9.80533 67.533 10.12C67.3516 10.4293 67.1116 10.6667 66.813 10.832C66.5196 10.9973 66.2023 11.08 65.861 11.08ZM65.861 10.48C66.085 10.48 66.2956 10.424 66.493 10.312C66.6903 10.2 66.8503 10.0347 66.973 9.816C67.101 9.592 67.165 9.32267 67.165 9.008C67.165 8.69333 67.101 8.42667 66.973 8.208C66.8503 7.984 66.6903 7.81333 66.493 7.696C66.2956 7.57867 66.085 7.52 65.861 7.52C65.637 7.52 65.4236 7.57867 65.221 7.696C65.0236 7.808 64.861 7.976 64.733 8.2C64.605 8.41867 64.541 8.688 64.541 9.008C64.541 9.32267 64.6023 9.592 64.725 9.816C64.853 10.0347 65.0183 10.2 65.221 10.312C65.4236 10.424 65.637 10.48 65.861 10.48ZM72.2969 11.08C72.0035 11.08 71.7635 11.0133 71.5769 10.88C71.3902 10.7413 71.2435 10.5653 71.1369 10.352C71.0355 10.1333 70.9635 9.90667 70.9209 9.672C70.8782 9.432 70.8569 9.21067 70.8569 9.008C70.8569 8.72 70.8755 8.45067 70.9129 8.2C70.9555 7.94933 71.0275 7.728 71.1289 7.536C71.2302 7.344 71.3742 7.19467 71.5609 7.088C71.7529 6.976 71.9982 6.92 72.2969 6.92C72.6169 6.92 72.9075 7.01067 73.1689 7.192C73.4302 7.37333 73.6382 7.62133 73.7929 7.936C73.9529 8.25067 74.0329 8.608 74.0329 9.008C74.0329 9.408 73.9529 9.76533 73.7929 10.08C73.6329 10.3893 73.4195 10.6347 73.1529 10.816C72.8915 10.992 72.6062 11.08 72.2969 11.08ZM72.1369 10.472C72.3822 10.472 72.5982 10.4107 72.7849 10.288C72.9769 10.16 73.1262 9.98667 73.2329 9.768C73.3395 9.544 73.3929 9.29067 73.3929 9.008C73.3929 8.58133 73.2835 8.22933 73.0649 7.952C72.8462 7.66933 72.5369 7.528 72.1369 7.528C71.9022 7.528 71.6942 7.592 71.5129 7.72C71.3315 7.84267 71.1902 8.016 71.0889 8.24C70.9875 8.45867 70.9369 8.71467 70.9369 9.008C70.9369 9.27467 70.9795 9.52 71.0649 9.744C71.1555 9.96267 71.2889 10.1387 71.4649 10.272C71.6409 10.4053 71.8649 10.472 72.1369 10.472ZM70.2969 7H70.9129L70.9369 7.84V12.6H70.2969V7ZM76.5875 11.08C76.2462 11.08 75.9262 10.9973 75.6275 10.832C75.3289 10.6667 75.0862 10.4293 74.8995 10.12C74.7182 9.80533 74.6275 9.43467 74.6275 9.008C74.6275 8.58133 74.7182 8.21333 74.8995 7.904C75.0862 7.58933 75.3289 7.34667 75.6275 7.176C75.9262 7.00533 76.2462 6.92 76.5875 6.92C76.9289 6.92 77.2462 7.00533 77.5395 7.176C77.8382 7.34667 78.0782 7.58933 78.2595 7.904C78.4409 8.21333 78.5315 8.58133 78.5315 9.008C78.5315 9.43467 78.4409 9.80533 78.2595 10.12C78.0782 10.4293 77.8382 10.6667 77.5395 10.832C77.2462 10.9973 76.9289 11.08 76.5875 11.08ZM76.5875 10.48C76.8115 10.48 77.0222 10.424 77.2195 10.312C77.4169 10.2 77.5769 10.0347 77.6995 9.816C77.8275 9.592 77.8915 9.32267 77.8915 9.008C77.8915 8.69333 77.8275 8.42667 77.6995 8.208C77.5769 7.984 77.4169 7.81333 77.2195 7.696C77.0222 7.57867 76.8115 7.52 76.5875 7.52C76.3635 7.52 76.1502 7.57867 75.9475 7.696C75.7502 7.808 75.5875 7.976 75.4595 8.2C75.3315 8.41867 75.2675 8.688 75.2675 9.008C75.2675 9.32267 75.3289 9.592 75.4515 9.816C75.5795 10.0347 75.7449 10.2 75.9475 10.312C76.1502 10.424 76.3635 10.48 76.5875 10.48ZM79.3437 7H79.9837V11H79.3437V7ZM81.2637 7.6C80.9917 7.6 80.7624 7.66933 80.5757 7.808C80.3944 7.94133 80.2504 8.10667 80.1437 8.304C80.0424 8.496 79.9757 8.68267 79.9437 8.864L79.9357 8.4C79.9357 8.352 79.9464 8.272 79.9677 8.16C79.9891 8.048 80.0291 7.92267 80.0877 7.784C80.1464 7.64 80.2237 7.504 80.3197 7.376C80.4211 7.24267 80.5491 7.13333 80.7037 7.048C80.8584 6.96267 81.0451 6.92 81.2637 6.92V7.6Z" fill="#424245"/>
<path d="M6.61717 17.83C6.64499 17.8652 6.66285 17.8872 6.68011 17.9098C7.00013 18.3311 7.32117 18.7514 7.63875 19.1747C7.67773 19.2267 7.71246 19.2311 7.76688 19.2181C8.23249 19.1068 8.74541 18.5567 8.83658 17.9613C8.8776 17.6931 8.8575 17.4283 8.80592 17.1639C8.77973 17.0292 8.73119 16.9078 8.66439 16.7926C8.56124 16.6145 8.44224 16.452 8.29401 16.3169C8.03146 16.0774 7.7283 15.9593 7.38899 15.9506C7.33396 15.9492 7.27893 15.9503 7.2239 15.9497C7.21964 15.9497 7.21537 15.9445 7.20157 15.9358C7.9145 13.6286 8.62804 11.3193 9.34463 9C9.35925 9.01882 9.36839 9.02554 9.37123 9.03473C10.0825 11.3348 10.7932 13.6348 11.5084 15.9486C11.4712 15.9494 11.4453 15.9512 11.4193 15.9503C11.2582 15.9445 11.0995 15.9618 10.9439 16.0093C10.607 16.1123 10.3439 16.3315 10.1386 16.6385C10.0764 16.7314 10.0176 16.8294 9.97147 16.9327C9.93451 17.0153 9.9138 17.1085 9.89532 17.1995C9.8405 17.4662 9.82547 17.7362 9.87887 18.0048C9.95055 18.3665 10.1286 18.6577 10.3845 18.8928C10.5455 19.0407 10.7189 19.1626 10.9279 19.2148C10.9912 19.2305 11.03 19.2255 11.0749 19.1657C11.3902 18.7438 11.71 18.3259 12.0284 17.9067C12.0443 17.8858 12.0613 17.8661 12.0863 17.8354C12.1017 17.8679 12.1147 17.8926 12.1253 17.9186C12.3005 18.3521 12.4754 18.7859 12.6502 19.2195C12.7578 19.4868 12.8717 19.7514 12.9712 20.0223C13.0931 20.3542 13.1643 20.7012 13.1918 21.0584C13.1999 21.1653 13.2062 21.2726 13.2074 21.3799C13.208 21.4337 13.2318 21.4662 13.263 21.4998C13.5893 21.8507 13.9152 22.202 14.2414 22.5532C15.5921 24.008 16.9428 25.4631 18.2934 26.918C18.3143 26.9404 18.3338 26.9646 18.3472 27C18.3224 26.9919 18.2976 26.9841 18.2729 26.9756C16.117 26.2355 13.9611 25.4958 11.8057 24.7542C11.7474 24.734 11.7048 24.7412 11.6546 24.7808C11.1697 25.1631 10.6324 25.4062 10.0427 25.5028C9.88476 25.5285 9.72435 25.54 9.56474 25.5483C9.42504 25.5557 9.28473 25.553 9.14482 25.5494C8.46945 25.5317 7.84302 25.3289 7.26715 24.9379C7.1904 24.8859 7.11425 24.8321 7.04217 24.773C6.99912 24.7376 6.96135 24.734 6.91119 24.7515C6.33878 24.9502 5.76575 25.1465 5.19272 25.3435C3.58613 25.8953 1.97954 26.4475 0.372956 26.9991C0.368895 27.0004 0.363819 26.9982 0.347168 26.9962C0.369504 26.9698 0.386155 26.9478 0.404633 26.9279C0.945374 26.3448 1.48632 25.762 2.02726 25.1792C3.15951 23.9596 4.29135 22.7398 5.42502 21.5218C5.47822 21.4646 5.49568 21.4075 5.49751 21.3268C5.5034 21.0615 5.53548 20.7989 5.5899 20.5401C5.6494 20.2567 5.73996 19.9851 5.84839 19.7203C6.04191 19.2475 6.234 18.7738 6.4267 18.3006C6.48762 18.1502 6.54853 17.9992 6.61717 17.83ZM9.90933 21.9303C9.91725 21.9468 9.91908 21.9553 9.92395 21.9607C10.125 22.1821 10.3506 22.3623 10.6277 22.4474C10.9226 22.5379 11.2008 22.503 11.4552 22.2995C11.6254 22.1635 11.7695 22.0008 11.8897 21.8122C12.1482 21.4062 12.3018 20.9511 12.3992 20.4707C12.4029 20.4528 12.3996 20.4333 12.3996 20.4086C11.9836 20.3846 11.6512 20.5807 11.3462 20.865C11.3744 20.978 11.3998 21.0844 11.4278 21.1899C11.4408 21.239 11.4414 21.2858 11.4296 21.3356C11.3537 21.6526 11.2796 21.9704 11.2042 22.2876C11.1989 22.3098 11.1902 22.3311 11.1831 22.3526C11.178 22.3528 11.1732 22.3528 11.1681 22.3531C11.0842 22.0456 11.019 21.732 10.9307 21.4082C10.6499 21.7467 10.288 21.8561 9.90933 21.9303ZM6.31116 20.4008C6.30568 20.4178 6.30243 20.4232 6.30283 20.4279C6.30446 20.4442 6.3069 20.4606 6.31014 20.4767C6.40193 20.9388 6.55016 21.3755 6.79098 21.7698C6.92358 21.9872 7.0846 22.1734 7.28198 22.3217C7.5096 22.4931 7.75774 22.5285 8.02029 22.4631C8.31777 22.3887 8.55778 22.2038 8.7714 21.9715C8.77973 21.9625 8.785 21.9497 8.7976 21.9291C8.41321 21.8592 8.05461 21.742 7.77459 21.4109C7.68911 21.7351 7.62189 22.0486 7.53052 22.356C7.51366 22.3246 7.50351 22.2941 7.4962 22.263C7.43549 22.0071 7.38188 21.7488 7.31223 21.4956C7.26817 21.3356 7.26309 21.185 7.31792 21.0293C7.3364 20.9768 7.36036 20.9103 7.34553 20.8644C7.33051 20.8175 7.27284 20.7853 7.2306 20.7512C7.01353 20.5767 6.78103 20.4418 6.50731 20.4156C6.44071 20.4097 6.37431 20.4057 6.31116 20.4008Z" fill="#1D1D1F"/>
<path d="M17.4592 14.872V20.922H21.9032V22H16.2052V14.872H17.4592ZM28.8173 22H27.5963V16.522H28.8173V22ZM27.6623 19.393L27.6733 19.745C27.6586 19.8403 27.6256 19.9833 27.5743 20.174C27.5303 20.3647 27.4533 20.5737 27.3433 20.801C27.2406 21.021 27.1013 21.2337 26.9253 21.439C26.7566 21.637 26.5439 21.802 26.2873 21.934C26.0306 22.0587 25.7189 22.121 25.3523 22.121C25.0883 22.121 24.8206 22.0843 24.5493 22.011C24.2853 21.945 24.0433 21.8313 23.8233 21.67C23.6106 21.5087 23.4383 21.2887 23.3063 21.01C23.1743 20.7313 23.1083 20.3793 23.1083 19.954V16.522H24.3293V19.723C24.3293 20.0677 24.3843 20.339 24.4943 20.537C24.6116 20.7277 24.7729 20.8633 24.9783 20.944C25.1836 21.0247 25.4219 21.065 25.6933 21.065C26.0819 21.065 26.4119 20.977 26.6833 20.801C26.9546 20.625 27.1709 20.4087 27.3323 20.152C27.5009 19.888 27.6109 19.635 27.6623 19.393ZM32.6079 22.121C32.1092 22.121 31.6509 22 31.2329 21.758C30.8222 21.516 30.4922 21.1823 30.2429 20.757C30.0009 20.3243 29.8799 19.8293 29.8799 19.272C29.8799 18.7 30.0046 18.2013 30.2539 17.776C30.5032 17.3433 30.8406 17.006 31.2659 16.764C31.6912 16.522 32.1679 16.401 32.6959 16.401C33.2826 16.401 33.7482 16.5293 34.0929 16.786C34.4376 17.0427 34.6832 17.3873 34.8299 17.82C34.9766 18.2527 35.0499 18.7367 35.0499 19.272C35.0499 19.5727 35.0059 19.8917 34.9179 20.229C34.8299 20.559 34.6906 20.867 34.4999 21.153C34.3166 21.439 34.0672 21.6737 33.7519 21.857C33.4439 22.033 33.0626 22.121 32.6079 22.121ZM32.9819 21.109C33.3926 21.109 33.7409 21.032 34.0269 20.878C34.3202 20.7167 34.5402 20.4967 34.6869 20.218C34.8409 19.9393 34.9179 19.624 34.9179 19.272C34.9179 18.8833 34.8409 18.5533 34.6869 18.282C34.5329 18.0033 34.3129 17.7907 34.0269 17.644C33.7409 17.49 33.3926 17.413 32.9819 17.413C32.3952 17.413 31.9406 17.5853 31.6179 17.93C31.2952 18.2747 31.1339 18.722 31.1339 19.272C31.1339 19.6313 31.2109 19.9503 31.3649 20.229C31.5262 20.5077 31.7462 20.724 32.0249 20.878C32.3036 21.032 32.6226 21.109 32.9819 21.109ZM34.9179 16.522H36.1499V22H35.0059C35.0059 22 34.9986 21.9303 34.9839 21.791C34.9692 21.6517 34.9546 21.483 34.9399 21.285C34.9252 21.0797 34.9179 20.8853 34.9179 20.702V16.522ZM37.4921 16.522H38.7131V22H37.4921V16.522ZM41.0231 16.401C41.3384 16.401 41.6281 16.445 41.8921 16.533C42.1634 16.621 42.3944 16.7567 42.5851 16.94C42.7831 17.116 42.9334 17.336 43.0361 17.6C43.1461 17.864 43.2011 18.1757 43.2011 18.535V22H41.9801V18.777C41.9801 18.3297 41.8701 17.9997 41.6501 17.787C41.4374 17.567 41.1001 17.457 40.6381 17.457C40.2861 17.457 39.9634 17.534 39.6701 17.688C39.3841 17.8347 39.1494 18.029 38.9661 18.271C38.7827 18.5057 38.6764 18.766 38.6471 19.052L38.6361 18.458C38.6727 18.1867 38.7534 17.93 38.8781 17.688C39.0027 17.4387 39.1677 17.2187 39.3731 17.028C39.5784 16.83 39.8204 16.676 40.0991 16.566C40.3777 16.456 40.6857 16.401 41.0231 16.401ZM54.7738 19.503C54.7005 20.053 54.5062 20.526 54.1908 20.922C53.8755 21.3107 53.4538 21.6113 52.9258 21.824C52.4052 22.0293 51.7965 22.132 51.0998 22.132C50.4985 22.132 49.9448 22.0513 49.4388 21.89C48.9402 21.7287 48.5038 21.494 48.1298 21.186C47.7632 20.8707 47.4772 20.4857 47.2718 20.031C47.0738 19.569 46.9748 19.041 46.9748 18.447C46.9748 17.8457 47.0738 17.3177 47.2718 16.863C47.4772 16.4083 47.7632 16.0233 48.1298 15.708C48.5038 15.3853 48.9402 15.1433 49.4388 14.982C49.9448 14.8207 50.4985 14.74 51.0998 14.74C51.8038 14.74 52.4162 14.8463 52.9368 15.059C53.4648 15.2717 53.8865 15.576 54.2018 15.972C54.5172 16.368 54.7078 16.8447 54.7738 17.402H53.5638C53.4612 17.072 53.2998 16.7933 53.0798 16.566C52.8598 16.3313 52.5812 16.1517 52.2438 16.027C51.9138 15.9023 51.5325 15.84 51.0998 15.84C50.5572 15.84 50.0695 15.9427 49.6368 16.148C49.2042 16.346 48.8632 16.6393 48.6138 17.028C48.3718 17.4093 48.2508 17.8823 48.2508 18.447C48.2508 19.0043 48.3718 19.4773 48.6138 19.866C48.8632 20.2473 49.2042 20.537 49.6368 20.735C50.0695 20.933 50.5572 21.032 51.0998 21.032C51.5325 21.032 51.9138 20.9733 52.2438 20.856C52.5738 20.7313 52.8488 20.5553 53.0688 20.328C53.2888 20.0933 53.4502 19.8183 53.5528 19.503H54.7738ZM58.4751 22.121C57.9764 22.121 57.5181 22 57.1001 21.758C56.6894 21.516 56.3594 21.1823 56.1101 20.757C55.8681 20.3243 55.7471 19.8293 55.7471 19.272C55.7471 18.7 55.8717 18.2013 56.1211 17.776C56.3704 17.3433 56.7077 17.006 57.1331 16.764C57.5584 16.522 58.0351 16.401 58.5631 16.401C59.1497 16.401 59.6154 16.5293 59.9601 16.786C60.3047 17.0427 60.5504 17.3873 60.6971 17.82C60.8437 18.2527 60.9171 18.7367 60.9171 19.272C60.9171 19.5727 60.8731 19.8917 60.7851 20.229C60.6971 20.559 60.5577 20.867 60.3671 21.153C60.1837 21.439 59.9344 21.6737 59.6191 21.857C59.3111 22.033 58.9297 22.121 58.4751 22.121ZM58.8491 21.109C59.2597 21.109 59.6081 21.032 59.8941 20.878C60.1874 20.7167 60.4074 20.4967 60.5541 20.218C60.7081 19.9393 60.7851 19.624 60.7851 19.272C60.7851 18.8833 60.7081 18.5533 60.5541 18.282C60.4001 18.0033 60.1801 17.7907 59.8941 17.644C59.6081 17.49 59.2597 17.413 58.8491 17.413C58.2624 17.413 57.8077 17.5853 57.4851 17.93C57.1624 18.2747 57.0011 18.722 57.0011 19.272C57.0011 19.6313 57.0781 19.9503 57.2321 20.229C57.3934 20.5077 57.6134 20.724 57.8921 20.878C58.1707 21.032 58.4897 21.109 58.8491 21.109ZM60.7851 16.522H62.0171V22H60.8731C60.8731 22 60.8657 21.9303 60.8511 21.791C60.8364 21.6517 60.8217 21.483 60.8071 21.285C60.7924 21.0797 60.7851 20.8853 60.7851 20.702V16.522ZM63.3592 16.522H64.5802V22H63.3592V16.522ZM66.5602 17.567C66.1642 17.567 65.8232 17.6513 65.5372 17.82C65.2586 17.9887 65.0349 18.194 64.8662 18.436C64.6976 18.678 64.5802 18.9127 64.5142 19.14L64.5032 18.524C64.5106 18.4433 64.5362 18.3223 64.5802 18.161C64.6242 17.9923 64.6902 17.809 64.7782 17.611C64.8736 17.413 64.9982 17.2223 65.1522 17.039C65.3136 16.8483 65.5079 16.6943 65.7352 16.577C65.9699 16.4597 66.2449 16.401 66.5602 16.401V17.567ZM70.1682 21.131H69.7392L71.6312 16.522H72.9622L70.5422 22H69.3762L66.9892 16.522H68.3312L70.1682 21.131ZM76.0708 22.121C75.5721 22.121 75.1138 22 74.6958 21.758C74.2851 21.516 73.9551 21.1823 73.7058 20.757C73.4638 20.3243 73.3428 19.8293 73.3428 19.272C73.3428 18.7 73.4674 18.2013 73.7168 17.776C73.9661 17.3433 74.3034 17.006 74.7288 16.764C75.1541 16.522 75.6308 16.401 76.1588 16.401C76.7454 16.401 77.2111 16.5293 77.5558 16.786C77.9004 17.0427 78.1461 17.3873 78.2928 17.82C78.4394 18.2527 78.5128 18.7367 78.5128 19.272C78.5128 19.5727 78.4688 19.8917 78.3808 20.229C78.2928 20.559 78.1534 20.867 77.9628 21.153C77.7794 21.439 77.5301 21.6737 77.2148 21.857C76.9068 22.033 76.5254 22.121 76.0708 22.121ZM76.4448 21.109C76.8554 21.109 77.2038 21.032 77.4898 20.878C77.7831 20.7167 78.0031 20.4967 78.1498 20.218C78.3038 19.9393 78.3808 19.624 78.3808 19.272C78.3808 18.8833 78.3038 18.5533 78.1498 18.282C77.9958 18.0033 77.7758 17.7907 77.4898 17.644C77.2038 17.49 76.8554 17.413 76.4448 17.413C75.8581 17.413 75.4034 17.5853 75.0808 17.93C74.7581 18.2747 74.5968 18.722 74.5968 19.272C74.5968 19.6313 74.6738 19.9503 74.8278 20.229C74.9891 20.5077 75.2091 20.724 75.4878 20.878C75.7664 21.032 76.0854 21.109 76.4448 21.109ZM78.3808 16.522H79.6128V22H78.4688C78.4688 22 78.4614 21.9303 78.4468 21.791C78.4321 21.6517 78.4174 21.483 78.4028 21.285C78.3881 21.0797 78.3808 20.8853 78.3808 20.702V16.522ZM81.0649 14.322H82.2859V22H81.0649V14.322ZM88.3674 22V18.832C88.3674 18.5387 88.3161 18.2967 88.2134 18.106C88.1181 17.908 87.9677 17.7577 87.7624 17.655C87.5571 17.5523 87.2857 17.501 86.9484 17.501C86.6111 17.501 86.3031 17.5743 86.0244 17.721C85.7457 17.8603 85.5184 18.0473 85.3424 18.282C85.1664 18.5167 85.0637 18.777 85.0344 19.063L85.0234 18.447C85.0601 18.183 85.1407 17.93 85.2654 17.688C85.3901 17.4387 85.5551 17.2187 85.7604 17.028C85.9657 16.8373 86.2077 16.687 86.4864 16.577C86.7651 16.4597 87.0731 16.401 87.4104 16.401C87.7257 16.401 88.0154 16.445 88.2794 16.533C88.5507 16.621 88.7817 16.753 88.9724 16.929C89.1704 17.0977 89.3207 17.3103 89.4234 17.567C89.5334 17.8163 89.5884 18.106 89.5884 18.436V22H88.3674ZM83.8794 22V14.322H85.1004V22H83.8794ZM93.8602 22.121C93.2515 22.121 92.7052 22.011 92.2212 21.791C91.7372 21.571 91.3559 21.2483 91.0772 20.823C90.7985 20.3977 90.6592 19.8807 90.6592 19.272C90.6592 18.6707 90.7985 18.1573 91.0772 17.732C91.3559 17.2993 91.7372 16.9693 92.2212 16.742C92.7052 16.5147 93.2515 16.401 93.8602 16.401C94.4689 16.401 95.0115 16.5147 95.4882 16.742C95.9649 16.9693 96.3389 17.2993 96.6102 17.732C96.8889 18.1573 97.0282 18.6707 97.0282 19.272C97.0282 19.8807 96.8889 20.3977 96.6102 20.823C96.3389 21.2483 95.9649 21.571 95.4882 21.791C95.0115 22.011 94.4689 22.121 93.8602 22.121ZM93.8602 21.12C94.2122 21.12 94.5349 21.0503 94.8282 20.911C95.1215 20.7717 95.3525 20.5627 95.5212 20.284C95.6972 20.0053 95.7852 19.668 95.7852 19.272C95.7852 18.876 95.6972 18.5387 95.5212 18.26C95.3525 17.9813 95.1215 17.7687 94.8282 17.622C94.5422 17.468 94.2195 17.391 93.8602 17.391C93.5009 17.391 93.1745 17.4643 92.8812 17.611C92.5879 17.7577 92.3495 17.9703 92.1662 18.249C91.9902 18.5277 91.9022 18.8687 91.9022 19.272C91.9022 19.668 91.9902 20.0053 92.1662 20.284C92.3422 20.5627 92.5769 20.7717 92.8702 20.911C93.1709 21.0503 93.5009 21.12 93.8602 21.12Z" fill="#1D1D1F"/>
</svg>
