<svg width="45" height="45" viewBox="0 0 45 45" fill="none" xmlns="http://www.w3.org/2000/svg">
<path d="M22.5 29.5312C26.3833 29.5312 29.5312 26.3833 29.5312 22.5C29.5312 18.6167 26.3833 15.4688 22.5 15.4688C18.6167 15.4688 15.4688 18.6167 15.4688 22.5C15.4688 26.3833 18.6167 29.5312 22.5 29.5312Z" stroke="#824E5A" stroke-width="3" stroke-miterlimit="10"/>
<path d="M30.2344 6.32812H14.7656C10.1057 6.32812 6.32812 10.1057 6.32812 14.7656V30.2344C6.32812 34.8943 10.1057 38.6719 14.7656 38.6719H30.2344C34.8943 38.6719 38.6719 34.8943 38.6719 30.2344V14.7656C38.6719 10.1057 34.8943 6.32812 30.2344 6.32812Z" stroke="#824E5A" stroke-width="3" stroke-linecap="round" stroke-linejoin="round"/>
<path d="M31.6406 15.4688C32.8056 15.4688 33.75 14.5244 33.75 13.3594C33.75 12.1944 32.8056 11.25 31.6406 11.25C30.4756 11.25 29.5312 12.1944 29.5312 13.3594C29.5312 14.5244 30.4756 15.4688 31.6406 15.4688Z" fill="#824E5A"/>
</svg>
