<svg width="100" height="45" viewBox="0 0 100 45" fill="none" xmlns="http://www.w3.org/2000/svg">
<g clip-path="url(#clip0_429_82)">
<path d="M18.4289 21.4619L12.7762 19.7436C12.4476 19.6362 12.1846 19.3498 12.086 18.9918L10.5085 12.8345C10.2456 11.7964 8.86527 11.7964 8.60235 12.8345L7.02484 18.9918C6.92625 19.3498 6.66333 19.6362 6.33468 19.7436L0.714808 21.4619C-0.23827 21.7483 -0.23827 23.2518 0.714808 23.5382L6.36755 25.2566C6.69619 25.364 6.95911 25.6503 7.05771 26.0083L8.63521 32.1656C8.89813 33.2037 10.2785 33.2037 10.5414 32.1656L12.1189 26.0083C12.2175 25.6503 12.4804 25.364 12.8091 25.2566L18.4618 23.5382C19.382 23.216 19.382 21.7483 18.4289 21.4619Z" fill="#824E5A"/>
<path d="M49.6479 29.5312C53.5312 29.5312 56.6792 26.3833 56.6792 22.5C56.6792 18.6167 53.5312 15.4688 49.6479 15.4688C45.7647 15.4688 42.6167 18.6167 42.6167 22.5C42.6167 26.3833 45.7647 29.5312 49.6479 29.5312Z" stroke="#824E5A" stroke-width="3" stroke-miterlimit="10"/>
<path d="M57.3823 6.32812H41.9136C37.2537 6.32812 33.4761 10.1057 33.4761 14.7656V30.2344C33.4761 34.8943 37.2537 38.6719 41.9136 38.6719H57.3823C62.0422 38.6719 65.8198 34.8943 65.8198 30.2344V14.7656C65.8198 10.1057 62.0422 6.32812 57.3823 6.32812Z" stroke="#824E5A" stroke-width="3" stroke-linecap="round" stroke-linejoin="round"/>
<path d="M58.7886 15.4688C59.9535 15.4688 60.8979 14.5244 60.8979 13.3594C60.8979 12.1944 59.9535 11.25 58.7886 11.25C57.6236 11.25 56.6792 12.1944 56.6792 13.3594C56.6792 14.5244 57.6236 15.4688 58.7886 15.4688Z" fill="#824E5A"/>
<path d="M98.5768 21.4619L92.9241 19.7436C92.5955 19.6362 92.3325 19.3498 92.2339 18.9918L90.6564 12.8345C90.3935 11.7964 89.0132 11.7964 88.7503 12.8345L87.1728 18.9918C87.0742 19.3498 86.8113 19.6362 86.4826 19.7436L80.8628 21.4619C79.9097 21.7483 79.9097 23.2518 80.8628 23.5382L86.5155 25.2566C86.8441 25.364 87.1071 25.6503 87.2057 26.0083L88.7832 32.1656C89.0461 33.2037 90.4264 33.2037 90.6893 32.1656L92.2668 26.0083C92.3654 25.6503 92.6283 25.364 92.957 25.2566L98.6097 23.5382C99.5299 23.216 99.5299 21.7483 98.5768 21.4619Z" fill="#824E5A"/>
</g>
<defs>
<clipPath id="clip0_429_82">
<rect width="100" height="45" fill="white"/>
</clipPath>
</defs>
</svg>
