<svg width="40" height="40" viewBox="0 0 40 40" fill="none" xmlns="http://www.w3.org/2000/svg">
<path d="M22.8092 3.71398C18.2344 4.83998 14.6352 7.33438 12.1488 11.3492C10.2944 14.3432 9.49365 17.6296 9.71965 21.1396C9.95885 24.8576 11.308 28.1496 13.7388 30.978C16.164 33.7996 19.2264 35.5768 22.8628 36.4204C22.1996 36.688 19.588 37.0088 17.2632 36.6796C15.3824 36.4132 13.5916 35.8752 11.896 35.0196C10.1996 34.1636 8.68804 33.0532 7.37724 31.6808C1.77724 25.818 1.18604 16.9596 5.72724 10.4944C10.3368 3.93158 17.6996 2.55998 22.8092 3.71398Z" fill="#1D1D1F"/>
<path d="M37.2824 0.151978C37.2824 4.84798 37.2824 9.51158 37.2808 14.1752C37.2808 14.2208 37.2588 14.2668 37.2336 14.3656C37.1836 14.2644 37.1508 14.2124 37.1312 14.1556C36.4932 12.3464 35.6244 10.6548 34.5352 9.07678C33.9048 8.16398 33.1988 7.31318 32.396 6.54718C31.4528 5.64718 30.3928 4.90598 29.2468 4.28638C26.6604 2.88718 23.8944 2.00198 21.026 1.40958C20.9616 1.39638 20.8968 1.38238 20.8328 1.36678C20.818 1.36318 20.8052 1.35078 20.7588 1.32198C20.8428 1.29478 20.904 1.26318 20.9684 1.25598C21.5988 1.18438 22.2284 1.09118 22.8612 1.05438C23.6192 1.01038 24.3796 1.02878 25.1364 1.10638C26.0996 1.20518 27.0448 1.39878 27.9712 1.68158C29.0056 1.99718 30.0372 2.32118 31.0732 2.63078C31.73 2.82718 32.3968 2.99318 33.0808 3.05478C33.4236 3.08558 33.776 3.08838 34.1172 3.04638C34.5452 2.99358 34.9012 2.75238 35.2336 2.48798C35.9124 1.94758 36.4452 1.27598 36.9372 0.569178C37.0128 0.460778 37.0812 0.347578 37.1592 0.241178C37.1832 0.207978 37.2276 0.190378 37.2824 0.151978Z" fill="#1D1D1F"/>
<path d="M20.7857 38.644C20.9129 38.616 21.0393 38.5868 21.1669 38.5604C23.5037 38.0796 25.7677 37.3736 27.9373 36.3732C29.3153 35.738 30.6161 34.9792 31.7817 34.0012C32.5561 33.3516 33.2441 32.6184 33.8669 31.824C35.2805 30.0216 36.3485 28.0296 37.1201 25.8756C37.1397 25.8212 37.1605 25.7676 37.1841 25.7152C37.1897 25.7024 37.2085 25.6956 37.2301 25.6788C37.3129 25.7568 37.2853 25.86 37.2857 25.9512C37.2897 26.8756 37.2917 27.8004 37.2921 28.7248C37.2941 32.324 37.2957 35.9232 37.2969 39.5224C37.2969 39.6248 37.2905 39.7276 37.2873 39.83C37.2669 39.836 37.2465 39.842 37.2261 39.8476C37.1713 39.7708 37.1145 39.6956 37.0621 39.6172C36.6273 38.962 36.1473 38.3436 35.5733 37.8028C35.2713 37.5184 34.9445 37.268 34.5657 37.0924C34.3229 36.98 34.0693 36.9248 33.7997 36.9172C32.8701 36.8912 31.9797 37.1036 31.0993 37.3612C29.9669 37.6928 28.8425 38.0528 27.7113 38.3892C26.7593 38.6724 25.7869 38.862 24.7933 38.9068C24.0769 38.9392 23.3577 38.964 22.6417 38.9384C22.0917 38.9188 21.5445 38.8168 20.9965 38.7484C20.9249 38.7396 20.8553 38.7128 20.7849 38.6944C20.7857 38.6784 20.7857 38.6612 20.7857 38.644Z" fill="#1D1D1F"/>
</svg>
