<svg width="83" height="22" viewBox="0 0 83 22" fill="none" xmlns="http://www.w3.org/2000/svg">
<path d="M18.4289 10.5057L12.7762 8.78735C12.4476 8.67996 12.1846 8.39357 12.086 8.03559L10.5085 1.87828C10.2456 0.840133 8.86527 0.840133 8.60235 1.87828L7.02484 8.03559C6.92625 8.39357 6.66333 8.67996 6.33468 8.78735L0.714808 10.5057C-0.23827 10.7921 -0.23827 12.2955 0.714808 12.582L6.36755 14.3003C6.69619 14.4077 6.95911 14.6941 7.05771 15.052L8.63521 21.2094C8.89813 22.2475 10.2785 22.2475 10.5414 21.2094L12.1189 15.052C12.2175 14.6941 12.4804 14.4077 12.8091 14.3003L18.4618 12.582C19.382 12.2598 19.382 10.7921 18.4289 10.5057Z" fill="#F57875"/>
<path d="M50.4289 10.5057L44.7762 8.78735C44.4476 8.67996 44.1846 8.39357 44.086 8.03559L42.5085 1.87828C42.2456 0.840133 40.8653 0.840133 40.6023 1.87828L39.0248 8.03559C38.9262 8.39357 38.6633 8.67996 38.3347 8.78735L32.7148 10.5057C31.7617 10.7921 31.7617 12.2955 32.7148 12.582L38.3675 14.3003C38.6962 14.4077 38.9591 14.6941 39.0577 15.052L40.6352 21.2094C40.8981 22.2475 42.2785 22.2475 42.5414 21.2094L44.1189 15.052C44.2175 14.6941 44.4804 14.4077 44.8091 14.3003L50.4618 12.582C51.382 12.2598 51.382 10.7921 50.4289 10.5057Z" fill="#F57875"/>
<path d="M82.1689 10.1355L76.5162 8.41717C76.1876 8.30978 75.9246 8.02339 75.826 7.66541L74.2485 1.5081C73.9856 0.469955 72.6053 0.469955 72.3423 1.5081L70.7648 7.66541C70.6662 8.02339 70.4033 8.30978 70.0747 8.41717L64.4548 10.1355C63.5017 10.4219 63.5017 11.9254 64.4548 12.2118L70.1075 13.9301C70.4362 14.0375 70.6991 14.3239 70.7977 14.6818L72.3752 20.8392C72.6381 21.8773 74.0185 21.8773 74.2814 20.8392L75.8589 14.6818C75.9575 14.3239 76.2204 14.0375 76.5491 13.9301L82.2018 12.2118C83.122 11.8896 83.122 10.4219 82.1689 10.1355Z" fill="#F57875"/>
</svg>
