<?xml version="1.0" ?><svg viewBox="0 0 512 512" xmlns="http://www.w3.org/2000/svg"><g id="Denture"><path d="M417.2461,261.9482l14.7695-89.6553a7.9986,7.9986,0,0,0-3.59-8.0439C381.1875,134.1044,319.9521,117.5034,256,117.5034S130.8125,134.1044,83.5742,164.249a7.9986,7.9986,0,0,0-3.59,8.0439l14.77,89.6553L80.0186,339.5141a8.0005,8.0005,0,0,0,3.5556,8.2368C130.8125,377.8954,192.0479,394.4965,256,394.4965s125.1875-16.6011,172.4258-46.7456a8.0005,8.0005,0,0,0,3.5556-8.2368Zm-66.794-6.3755V232.6152a22.8363,22.8363,0,0,1,22.8106-22.8106h1.7607a22.8363,22.8363,0,0,1,22.8106,22.8106v22.9575Zm47.3819,16V294.53A22.8363,22.8363,0,0,1,375.0234,317.34h-1.7607A22.8363,22.8363,0,0,1,350.4521,294.53v-22.957Zm-184.0069,67.97h-2.3935a33.9238,33.9238,0,0,1-33.8857-33.8852V272.4443a.8944.8944,0,0,1,.872-.8716h68.4209a.8944.8944,0,0,1,.8721.8716v33.2129A33.9238,33.9238,0,0,1,213.8271,339.5424Zm84.3458-151.94h2.3935a33.9238,33.9238,0,0,1,33.8857,33.8852v33.2129a.8948.8948,0,0,1-.872.8721H265.1592a.8948.8948,0,0,1-.8721-.8721V221.4877A33.9238,33.9238,0,0,1,298.1729,187.6025Zm-49.8858,67.0981a.8946.8946,0,0,1-.8711.8721H178.9951a.8949.8949,0,0,1-.8721-.8721V221.4877a33.9238,33.9238,0,0,1,33.8858-33.8852h2.3935a33.923,33.923,0,0,1,33.8848,33.8852Zm15.4258,17.7437a.8942.8942,0,0,1,.8711-.8716h68.4209a.8945.8945,0,0,1,.8721.8716v33.2129a33.9238,33.9238,0,0,1-33.8858,33.8852h-2.3935a33.923,33.923,0,0,1-33.8848-33.8852ZM114.166,255.5727V232.6152a22.8363,22.8363,0,0,1,22.8106-22.8106h1.7607a22.8363,22.8363,0,0,1,22.8106,22.8106v22.9575Zm47.3819,16V294.53A22.8363,22.8363,0,0,1,138.7373,317.34h-1.7607A22.8363,22.8363,0,0,1,114.166,294.53v-22.957Z"/></g></svg>