<svg width="102" height="47" viewBox="0 0 102 47" fill="none" xmlns="http://www.w3.org/2000/svg">
<path d="M18.4289 22.4619L12.7762 20.7436C12.4476 20.6362 12.1846 20.3498 12.086 19.9918L10.5085 13.8345C10.2456 12.7964 8.86527 12.7964 8.60235 13.8345L7.02484 19.9918C6.92625 20.3498 6.66333 20.6362 6.33468 20.7436L0.714808 22.4619C-0.23827 22.7483 -0.23827 24.2518 0.714808 24.5382L6.36755 26.2566C6.69619 26.364 6.95911 26.6503 7.05771 27.0083L8.63521 33.1656C8.89813 34.2037 10.2785 34.2037 10.5414 33.1656L12.1189 27.0083C12.2175 26.6503 12.4804 26.364 12.8091 26.2566L18.4618 24.5382C19.382 24.216 19.382 22.7483 18.4289 22.4619Z" fill="#F57875"/>
<path d="M50.6479 24.9688C53.8926 24.9688 56.5229 22.3384 56.5229 19.0938C56.5229 15.8491 53.8926 13.2188 50.6479 13.2188C47.4033 13.2188 44.7729 15.8491 44.7729 19.0938C44.7729 22.3384 47.4033 24.9688 50.6479 24.9688Z" stroke="#F57875" stroke-width="2.2" stroke-linecap="round" stroke-linejoin="round"/>
<path d="M65.3354 19.0938C65.3354 32.3125 50.6479 42.5938 50.6479 42.5938C50.6479 42.5938 35.9604 32.3125 35.9604 19.0938C35.9604 15.1984 37.5079 11.4626 40.2623 8.70812C43.0168 5.95368 46.7526 4.40625 50.6479 4.40625C54.5433 4.40625 58.2791 5.95368 61.0336 8.70812C63.788 11.4626 65.3354 15.1984 65.3354 19.0938V19.0938Z" stroke="#F57875" stroke-width="2.2" stroke-linecap="round" stroke-linejoin="round"/>
<path d="M100.577 22.4619L94.9241 20.7436C94.5955 20.6362 94.3325 20.3498 94.2339 19.9918L92.6564 13.8345C92.3935 12.7964 91.0132 12.7964 90.7503 13.8345L89.1728 19.9918C89.0742 20.3498 88.8113 20.6362 88.4826 20.7436L82.8628 22.4619C81.9097 22.7483 81.9097 24.2518 82.8628 24.5382L88.5155 26.2566C88.8441 26.364 89.1071 26.6503 89.2057 27.0083L90.7832 33.1656C91.0461 34.2037 92.4264 34.2037 92.6893 33.1656L94.2668 27.0083C94.3654 26.6503 94.6283 26.364 94.957 26.2566L100.61 24.5382C101.53 24.216 101.53 22.7483 100.577 22.4619Z" fill="#F57875"/>
</svg>
