<svg width="21" height="21" viewBox="0 0 21 21" fill="none" xmlns="http://www.w3.org/2000/svg">
<path d="M19.3449 9.55349L13.6922 7.84589C13.3636 7.73917 13.1006 7.45457 13.002 7.09881L11.4245 0.979931C11.1616 -0.0517413 9.78128 -0.0517413 9.51836 0.979931L7.94085 7.09881C7.84226 7.45457 7.57934 7.73917 7.25069 7.84589L1.63082 9.55349C0.677746 9.83809 0.677746 11.3322 1.63082 11.6169L7.28356 13.3245C7.6122 13.4312 7.87512 13.7158 7.97372 14.0715L9.55122 20.1904C9.81415 21.222 11.1945 21.222 11.4574 20.1904L13.0349 14.0715C13.1335 13.7158 13.3964 13.4312 13.7251 13.3245L19.3778 11.6169C20.298 11.2967 20.298 9.83809 19.3449 9.55349Z" fill="#F57875"/>
</svg>
