<svg width="156" height="155" viewBox="0 0 156 155" fill="none" xmlns="http://www.w3.org/2000/svg">
<path d="M122.033 112.376C121.989 112.061 121.883 111.758 121.721 111.484C121.56 111.21 121.346 110.971 121.091 110.78C120.837 110.589 120.548 110.449 120.24 110.37C119.932 110.291 119.611 110.273 119.296 110.318L118.195 110.473C115.067 110.923 112.011 111.778 109.104 113.018L98.2204 97.4739L107.6 90.9061C107.863 90.7244 108.086 90.4926 108.259 90.2242C108.431 89.9557 108.549 89.6559 108.605 89.3418C108.662 89.0276 108.655 88.7055 108.587 88.3939C108.518 88.0823 108.388 87.7873 108.205 87.5259C108.022 87.2645 107.789 87.0419 107.52 86.8708C107.251 86.6997 106.95 86.5835 106.636 86.5289C106.321 86.4743 105.999 86.4823 105.688 86.5526C105.377 86.6228 105.083 86.7539 104.822 86.9383L100.846 89.7222L67.2556 41.7496C67.0451 41.4489 66.769 41.2 66.4482 41.0217C66.1275 40.8434 65.7703 40.7403 65.4039 40.7203L51.1514 39.9412L38.3482 21.6564C38.1657 21.3959 37.9338 21.1739 37.6655 21.003C37.3973 20.8321 37.098 20.7157 36.7848 20.6605C36.4716 20.6053 36.1506 20.6123 35.8401 20.6811C35.5296 20.7499 35.2357 20.8793 34.9751 21.0617C34.7146 21.2441 34.4926 21.4761 34.3217 21.7443C34.1508 22.0125 34.0344 22.3118 33.9792 22.625C33.9239 22.9382 33.931 23.2593 33.9998 23.5698C34.0686 23.8803 34.198 24.1742 34.3804 24.4347L47.1836 42.7195L43.041 56.3789C42.9345 56.7301 42.9092 57.1009 42.967 57.4633C43.0249 57.8258 43.1643 58.1703 43.3748 58.471L52.5264 71.541L52.5266 71.5413L52.5268 71.5415L76.9655 106.444L72.9899 109.227C72.7274 109.409 72.5034 109.641 72.3308 109.909C72.1582 110.178 72.0404 110.477 71.9841 110.792C71.9278 111.106 71.9341 111.428 72.0028 111.74C72.0714 112.051 72.201 112.346 72.384 112.608C72.5671 112.869 72.8 113.092 73.0695 113.263C73.3389 113.434 73.6395 113.551 73.9539 113.605C74.2684 113.66 74.5906 113.652 74.9019 113.581C75.2132 113.511 75.5075 113.38 75.768 113.195L85.148 106.627L96.0339 122.174C93.8797 124.478 92.0347 127.053 90.5452 129.834L90.0222 130.816C89.8704 131.096 89.7756 131.404 89.7433 131.722C89.711 132.04 89.7418 132.361 89.8339 132.666C89.9261 132.972 90.0778 133.256 90.2802 133.503C90.4827 133.75 90.732 133.954 91.0138 134.105C91.2955 134.255 91.6041 134.348 91.9219 134.378C92.2397 134.408 92.5604 134.376 92.8655 134.282C93.1707 134.188 93.4542 134.034 93.6998 133.831C93.9454 133.627 94.1483 133.376 94.2968 133.093L94.8198 132.112C99.5977 123.147 108.815 116.693 118.874 115.269L119.975 115.113C120.29 115.069 120.593 114.963 120.867 114.801C121.141 114.639 121.38 114.425 121.571 114.171C121.762 113.917 121.901 113.628 121.981 113.32C122.06 113.012 122.078 112.691 122.033 112.376ZM73.037 92.3883L78.205 88.7696C78.7252 88.3988 79.0778 87.8376 79.186 87.208C79.2943 86.5785 79.1495 85.9317 78.7831 85.4084C78.4167 84.8852 77.8585 84.5279 77.2299 84.4143C76.6013 84.3007 75.9533 84.44 75.4269 84.802L70.2589 88.4206L65.4606 81.5677L70.6288 77.9488C70.8894 77.7663 71.1114 77.5344 71.2823 77.2661C71.4532 76.9979 71.5695 76.6986 71.6247 76.3854C71.68 76.0722 71.673 75.7511 71.6041 75.4406C71.5353 75.1301 71.4059 74.8362 71.2235 74.5757C71.041 74.3152 70.8091 74.0931 70.5408 73.9222C70.2726 73.7513 69.9733 73.635 69.6601 73.5798C69.3469 73.5245 69.0258 73.5316 68.7153 73.6004C68.4048 73.6693 68.1109 73.7986 67.8504 73.981L62.682 77.5999L57.8837 70.747L63.0518 67.1282C63.578 66.7597 63.9362 66.1974 64.0478 65.5648C64.1593 64.9322 64.015 64.2812 63.6465 63.7551C63.2781 63.2289 62.7157 62.8707 62.0831 62.7591C61.4506 62.6476 60.7996 62.7919 60.2734 63.1604L55.1053 66.7791L48.0181 56.6576L51.6091 44.8173L63.9634 45.4927L96.8784 92.5003L90.3696 97.058L84.3538 101.27L84.3526 101.271L80.9842 103.63L80.9334 103.665L73.037 92.3883Z" fill="url(#paint0_linear_246_312)"/>
<defs>
<linearGradient id="paint0_linear_246_312" x1="77.9998" y1="20.6237" x2="77.9998" y2="134.389" gradientUnits="userSpaceOnUse">
<stop stop-color="#F87171"/>
<stop offset="1" stop-color="#D9A689"/>
</linearGradient>
</defs>
</svg>
