<svg width="156" height="155" viewBox="0 0 156 155" fill="none" xmlns="http://www.w3.org/2000/svg">
<path d="M135.278 56.9373C135.294 56.8148 135.312 56.6924 135.328 56.5698L135.313 56.5716C135.348 56.1483 135.27 55.7234 135.088 55.3396C134.907 54.9559 134.627 54.6268 134.277 54.3856L105.108 34.3527C105.059 34.319 105.008 34.2869 104.957 34.2569C101.146 32.0294 96.671 31.2177 92.3204 31.9646C87.9698 32.7116 84.0223 34.9694 81.1726 38.3406L77.9999 42.0851L74.8273 38.3406C71.9776 34.9694 68.0299 32.7116 63.6793 31.9646C59.3288 31.2176 54.8541 32.0293 51.0431 34.2569C50.9914 34.2869 50.9411 34.319 50.8917 34.3527L21.7227 54.3856C21.3409 54.6486 21.0427 55.0158 20.8637 55.4435C20.6848 55.8712 20.6325 56.3413 20.7132 56.7979L20.708 56.7988C20.7865 57.2482 20.8706 57.6962 20.9604 58.1429C23.4604 75.6046 30.209 92.5989 40.1126 104.199C50.6288 116.516 64.086 123.3 78.0055 123.3C91.9006 123.3 105.34 116.537 115.848 104.259C126 92.3962 132.909 74.8604 135.274 56.9659C135.276 56.9564 135.278 56.9471 135.279 56.9376L135.278 56.9373ZM123.627 59.8635L119.381 69.1514C118.84 70.3308 117.972 71.3303 116.88 72.0317C115.788 72.7331 114.518 73.1069 113.221 73.109H42.768C41.4704 73.107 40.2005 72.7332 39.1087 72.0318C38.017 71.3305 37.1491 70.3309 36.6078 69.1516L32.3621 59.8637L123.627 59.8635ZM78.0082 84.1223C87.9905 84.1223 96.8092 87.7483 102.448 94.1156C94.891 98.0147 86.5107 100.049 78.007 100.05C69.5032 100.05 61.1228 98.0154 53.5655 94.1166C59.204 87.7419 67.9905 84.1223 78.0082 84.1223ZM53.5574 38.3982C56.3826 36.7701 59.69 36.1859 62.902 36.7477C66.1141 37.3094 69.0269 38.9813 71.1319 41.4716L76.1465 47.3907C76.375 47.6592 76.6591 47.8748 76.9791 48.0226C77.2991 48.1705 77.6474 48.2471 77.9999 48.2471C78.3524 48.2471 78.7007 48.1705 79.0207 48.0226C79.3407 47.8748 79.6248 47.6592 79.8533 47.3907L84.8679 41.4716C86.9729 38.9812 89.8857 37.3092 93.0978 36.7475C96.3099 36.1857 99.6172 36.7699 102.442 38.3981L125.102 53.9601H30.8981L53.5574 38.3982ZM112.168 101.109C102.595 112.295 90.4626 118.456 78.0055 118.456C65.5263 118.456 53.3773 112.276 43.7963 101.054C39.2712 95.6724 35.5414 89.6698 32.7208 83.2294C32.7963 83.3228 32.8748 83.4141 32.9509 83.5069C33.1469 83.7471 33.3447 83.9857 33.5445 84.2227C33.6327 84.3271 33.7208 84.4314 33.8098 84.5351C37.2423 88.5562 41.2095 92.088 45.6008 95.032C45.6799 95.0852 45.7604 95.1362 45.8397 95.1891C46.1288 95.3809 46.4187 95.5713 46.7109 95.7577C46.976 95.9277 47.2434 96.0938 47.5111 96.2591C47.5936 96.3099 47.676 96.3608 47.7587 96.4111C48.406 96.8066 49.058 97.1938 49.7196 97.5627C49.7575 97.5839 49.7973 97.599 49.8359 97.618C58.4754 102.4 68.1901 104.904 78.0647 104.893C87.9393 104.883 97.6488 102.359 106.278 97.5592C106.326 97.5366 106.374 97.5174 106.42 97.4915C112.875 93.8783 118.586 89.0717 123.247 83.3273C120.423 89.7537 116.692 95.742 112.168 101.109Z" fill="url(#paint0_linear_243_260)"/>
<defs>
<linearGradient id="paint0_linear_243_260" x1="78.0022" y1="31.6941" x2="78.0022" y2="123.3" gradientUnits="userSpaceOnUse">
<stop stop-color="#F87171"/>
<stop offset="1" stop-color="#D9A689"/>
</linearGradient>
</defs>
</svg>
