<svg width="155" height="155" viewBox="0 0 155 155" fill="none" xmlns="http://www.w3.org/2000/svg">
<path d="M56.3838 38.451H65.0911V46.7159C65.0911 47.3582 65.3463 47.9742 65.8005 48.4284C66.2547 48.8826 66.8707 49.1377 67.513 49.1377C68.1553 49.1377 68.7713 48.8826 69.2255 48.4284C69.6797 47.9742 69.9349 47.3582 69.9349 46.7159V36.0291C69.9349 35.3868 69.6797 34.7707 69.2255 34.3166C68.7713 33.8624 68.1553 33.6072 67.513 33.6072H62.5508L77.4999 19.7243L92.4489 33.6072H87.4867C86.8444 33.6072 86.2284 33.8624 85.7742 34.3166C85.32 34.7707 85.0648 35.3868 85.0648 36.0291V46.7159C85.0648 47.3582 85.32 47.9742 85.7742 48.4284C86.2284 48.8826 86.8444 49.1377 87.4867 49.1377C88.129 49.1377 88.745 48.8826 89.1992 48.4284C89.6534 47.9742 89.9086 47.3582 89.9086 46.7159V38.451H98.6159C99.1025 38.451 99.5779 38.3044 99.98 38.0303C100.382 37.7562 100.692 37.3673 100.87 36.9144C101.048 36.4614 101.085 35.9653 100.977 35.4909C100.869 35.0164 100.621 34.5855 100.264 34.2544L79.1479 14.6443C78.6999 14.2284 78.1112 13.9973 77.4999 13.9973C76.8886 13.9973 76.2999 14.2284 75.8518 14.6443L54.7358 34.2543C54.3792 34.5855 54.1306 35.0164 54.0225 35.4908C53.9143 35.9653 53.9516 36.4614 54.1295 36.9143C54.3074 37.3673 54.6176 37.7562 55.0197 38.0303C55.4218 38.3043 55.8972 38.451 56.3838 38.451Z" fill="url(#paint0_linear_345_89)"/>
<path d="M127.806 105.061C122.223 102.266 116.425 99.9239 110.467 98.0562L113.338 83.3259C114.352 78.1513 113.813 72.7923 111.789 67.9233C109.764 63.0543 106.345 58.8927 101.961 55.9622C96.3873 52.2197 89.1428 51.901 83.0553 55.1291C81.3381 56.0172 79.433 56.4807 77.4998 56.4807C75.5665 56.4808 73.6614 56.0174 71.9442 55.1294C65.8565 51.9007 58.612 52.2201 53.0379 55.9619C48.6542 58.8925 45.2352 63.0541 43.2108 67.9231C41.1865 72.792 40.6473 78.151 41.6611 83.3256L44.5322 98.0572C38.6802 99.8914 32.982 102.184 27.4904 104.914L27.1989 105.058C26.7948 105.259 26.4547 105.568 26.2169 105.951C25.9791 106.335 25.8531 106.777 25.853 107.228V138.581C25.853 139.223 26.1082 139.839 26.5624 140.294C27.0166 140.748 27.6326 141.003 28.2749 141.003H126.724C127.367 141.003 127.983 140.748 128.437 140.294C128.891 139.839 129.146 139.223 129.146 138.581V107.228C129.146 106.778 129.021 106.337 128.784 105.954C128.547 105.572 128.209 105.262 127.806 105.061ZM55.7378 59.9836C59.8274 57.2383 65.1675 57.018 69.6748 59.4086C72.0911 60.6674 74.7754 61.3246 77.5 61.3246C80.2245 61.3245 82.9088 60.6672 85.325 59.4083C89.8318 57.0174 95.1721 57.2383 99.2618 59.9834C102.853 62.3838 105.654 65.7929 107.313 69.7814C108.972 73.7699 109.414 78.1599 108.584 82.3991L100.566 123.541C100.343 124.683 99.7448 125.718 98.8657 126.482C97.9867 127.245 96.8776 127.692 95.7151 127.751C94.5526 127.811 93.4035 127.48 92.4507 126.812C91.4979 126.143 90.7963 125.175 90.4575 124.061L85.5209 107.833C84.9977 106.114 83.9357 104.608 82.4915 103.537C81.0472 102.467 79.2973 101.89 77.4998 101.89C75.7023 101.89 73.9523 102.467 72.5081 103.537C71.0639 104.608 70.0018 106.114 69.4787 107.833L64.5421 124.061C64.2033 125.175 63.5016 126.143 62.5489 126.812C61.5961 127.48 60.447 127.811 59.2845 127.751C58.122 127.692 57.0129 127.245 56.1338 126.482C55.2548 125.718 54.6563 124.683 54.4336 123.541L46.4156 82.3989C45.5855 78.1598 46.0276 73.7698 47.6864 69.7813C49.3451 65.7928 52.1464 62.3839 55.7378 59.9836Z" fill="url(#paint1_linear_345_89)"/>
<defs>
<linearGradient id="paint0_linear_345_89" x1="77.4999" y1="13.9973" x2="77.4999" y2="49.1377" gradientUnits="userSpaceOnUse">
<stop stop-color="#F87171"/>
<stop offset="1" stop-color="#D9A689"/>
</linearGradient>
<linearGradient id="paint1_linear_345_89" x1="77.4996" y1="52.9138" x2="77.4996" y2="141.003" gradientUnits="userSpaceOnUse">
<stop stop-color="#F87171"/>
<stop offset="1" stop-color="#D9A689"/>
</linearGradient>
</defs>
</svg>
