<svg width="155" height="155" viewBox="0 0 155 155" fill="none" xmlns="http://www.w3.org/2000/svg">
<path d="M132.094 81.1101L132.096 81.1064C126.939 78.7389 121.637 76.7016 116.221 75.0067L120.627 49.5414C121.835 43.3455 121.186 36.9307 118.76 31.1028C116.334 25.2749 112.24 20.2938 106.992 16.7855C100.366 12.3372 91.7516 11.9592 84.5116 15.7996C82.3445 16.9212 79.9399 17.5066 77.4998 17.5066C75.0596 17.5066 72.655 16.9212 70.488 15.7996C63.2475 11.9591 54.6334 12.3369 48.0073 16.7854C42.7593 20.2937 38.6653 25.2747 36.2395 31.1027C33.8136 36.9306 33.1642 43.3454 34.3728 49.5412L38.7783 75.0079C33.476 76.6671 28.2822 78.6547 23.2269 80.9592L22.9096 81.1038C22.4867 81.2964 22.1282 81.6066 21.8768 81.9974C21.6254 82.3882 21.4917 82.843 21.4917 83.3077V139.407C21.4917 140.049 21.7469 140.665 22.2011 141.119C22.6552 141.573 23.2713 141.829 23.9136 141.829H131.086C131.728 141.829 132.344 141.573 132.798 141.119C133.253 140.665 133.508 140.049 133.508 139.407V83.4687C133.508 82.1747 132.832 81.4437 132.094 81.1101ZM43.4533 73.6176L39.1413 48.6906C39.1383 48.6737 39.1352 48.6568 39.132 48.6398C38.1013 43.3761 38.6503 37.9252 40.7099 32.9727C42.7695 28.0203 46.2477 23.7876 50.707 20.807C55.8483 17.3556 62.5581 17.0765 68.2183 20.0787C71.0844 21.5712 74.2683 22.3504 77.4997 22.3504C80.7312 22.3504 83.915 21.5711 86.7812 20.0786C92.4412 17.0765 99.1509 17.3554 104.292 20.807C108.752 23.7876 112.23 28.0203 114.29 32.9727C116.349 37.9252 116.898 43.3761 115.867 48.6398C115.864 48.6568 115.861 48.6737 115.858 48.6906L111.546 73.6176H111.465C106.514 72.2715 101.488 71.2214 96.4129 70.4729L97.7121 60.3657C97.756 60.0244 97.7266 59.6777 97.626 59.3486C97.5254 59.0196 97.3557 58.7157 97.1285 58.4573C96.9012 58.199 96.6214 57.992 96.3079 57.8502C95.9943 57.7084 95.6542 57.6351 95.3101 57.6351H59.5379C59.1938 57.6351 58.8537 57.7084 58.5401 57.8502C58.2266 57.992 57.9468 58.199 57.7195 58.4573C57.4922 58.7157 57.3226 59.0196 57.222 59.3486C57.1213 59.6777 57.092 60.0244 57.1359 60.3657L58.4379 70.4948C53.4143 71.242 48.439 72.2848 43.5381 73.6176H43.4533ZM62.291 62.4788H92.5571L91.1281 73.594H63.7198L62.291 62.4788ZM77.4241 127.327C75.5686 127.319 73.7772 126.647 72.3743 125.432C70.9713 124.218 70.0496 122.541 69.7759 120.706L66.1628 92.5983H88.6854L85.0723 120.706C84.7986 122.541 83.8768 124.218 82.4739 125.432C81.071 126.647 79.2796 127.319 77.4241 127.327ZM56.6918 87.7545L54.705 78.4614H100.295L98.3077 87.7545H56.6918Z" fill="url(#paint0_linear_345_93)"/>
<defs>
<linearGradient id="paint0_linear_345_93" x1="77.4997" y1="13.1631" x2="77.4997" y2="141.829" gradientUnits="userSpaceOnUse">
<stop stop-color="#F87171"/>
<stop offset="1" stop-color="#D9A689"/>
</linearGradient>
</defs>
</svg>
