<svg width="155" height="155" viewBox="0 0 155 155" fill="none" xmlns="http://www.w3.org/2000/svg">
<path d="M122.991 62.3553H122.024C118.971 53.4664 113.347 45.6845 105.865 39.9965C97.6982 33.8207 87.739 30.479 77.5001 30.479C67.2612 30.479 57.302 33.8207 49.1353 39.9965C41.6534 45.6845 36.0294 53.4664 32.9765 62.3553H32.0095C27.9929 62.3553 24.1407 63.9509 21.3005 66.7911C18.4604 69.6313 16.8647 73.4834 16.8647 77.5C16.8647 81.5167 18.4604 85.3688 21.3005 88.209C24.1407 91.0492 27.9929 92.6448 32.0095 92.6448H32.9765C36.0295 101.534 41.6535 109.315 49.1353 115.003C57.302 121.179 67.2611 124.521 77.5001 124.521C87.739 124.521 97.6982 121.179 105.865 115.003C113.347 109.315 118.971 101.534 122.024 92.6448H122.991C127.007 92.6448 130.859 91.0492 133.7 88.209C136.54 85.3688 138.135 81.5167 138.135 77.5C138.135 73.4834 136.54 69.6313 133.7 66.7911C130.859 63.9509 127.007 62.3553 122.991 62.3553ZM122.991 87.8011H120.255C119.733 87.801 119.225 87.9696 118.807 88.2817C118.388 88.5938 118.082 89.0327 117.933 89.5331C115.345 98.14 110.096 105.705 102.94 111.142C95.615 116.681 86.6829 119.677 77.5001 119.677C68.3172 119.677 59.3852 116.681 52.0603 111.142C44.9039 105.705 39.6549 98.14 37.0673 89.5329C36.9186 89.0326 36.6123 88.5937 36.1939 88.2816C35.7756 87.9695 35.2676 87.8009 34.7457 87.8009H32.0095C29.2775 87.8009 26.6574 86.7156 24.7256 84.7838C22.7938 82.852 21.7085 80.2319 21.7085 77.4999C21.7085 74.7679 22.7938 72.1478 24.7256 70.216C26.6574 68.2842 29.2775 67.1989 32.0095 67.1989H34.7457C35.2676 67.1989 35.7756 67.0302 36.1939 66.7182C36.6123 66.4061 36.9186 65.9672 37.0673 65.4669C39.6548 56.8598 44.9038 49.2943 52.0603 43.8573C59.1072 38.4939 67.6765 35.5092 76.5305 35.3343C76.8362 35.4684 77.1663 35.5376 77.5001 35.5375C79.0481 35.5376 80.5613 35.9966 81.8484 36.8567C83.1355 37.7167 84.1387 38.9391 84.7311 40.3693C85.3235 41.7995 85.4784 43.3732 85.1764 44.8915C84.8744 46.4097 84.1289 47.8044 83.0343 48.8989C81.9397 49.9935 80.5451 50.739 79.0268 51.041C77.5086 51.3429 75.9348 51.1879 74.5047 50.5955C73.0745 50.0031 71.8521 48.9999 70.9921 47.7128C70.1321 46.4257 69.673 44.9124 69.673 43.3644C69.673 42.7221 69.4179 42.1061 68.9637 41.6519C68.5095 41.1977 67.8935 40.9426 67.2512 40.9426C66.6088 40.9426 65.9928 41.1977 65.5386 41.6519C65.0844 42.1061 64.8293 42.7221 64.8293 43.3644C64.8277 45.325 65.281 47.2591 66.1537 49.0147C67.0263 50.7703 68.2944 52.2994 69.8582 53.4818C71.4221 54.6642 73.2389 55.4676 75.1659 55.8288C77.0928 56.1899 79.0773 56.099 80.9632 55.5632C82.8491 55.0274 84.5849 54.0612 86.034 52.7408C87.4832 51.4204 88.6062 49.7817 89.3146 47.9536C90.0231 46.1256 90.2977 44.1581 90.1168 42.206C89.936 40.2538 89.3046 38.3703 88.2724 36.7035C93.5839 38.1019 98.5679 40.5328 102.94 43.8575C110.096 49.2946 115.345 56.86 117.933 65.467C118.082 65.9673 118.388 66.4062 118.807 66.7183C119.225 67.0304 119.733 67.199 120.255 67.199H122.991C125.723 67.199 128.343 68.2843 130.275 70.2161C132.207 72.1479 133.292 74.768 133.292 77.5C133.292 80.232 132.207 82.8521 130.275 84.784C128.343 86.7158 125.723 87.8011 122.991 87.8011Z" fill="url(#paint0_linear_345_85)"/>
<path d="M107.447 81.3432C97.8108 78.0364 87.6876 76.3728 77.5002 76.4222C67.3128 76.3728 57.1896 78.0363 47.5537 81.3431C46.9951 81.5375 46.5269 81.9296 46.2374 82.4455C45.948 82.9613 45.8574 83.5653 45.9827 84.1434C47.5489 91.3378 51.5293 97.7798 57.2626 102.399C62.996 107.019 70.1373 109.538 77.5002 109.538C84.863 109.538 92.0043 107.019 97.7377 102.399C103.471 97.7798 107.451 91.3378 109.018 84.1434C109.143 83.5653 109.052 82.9614 108.763 82.4456C108.473 81.9297 108.005 81.5376 107.447 81.3432ZM87.3936 81.7985V90.7689C87.3936 91.4113 87.1384 92.0273 86.6842 92.4815C86.23 92.9357 85.614 93.1908 84.9717 93.1908H70.0287C69.3864 93.1908 68.7704 92.9357 68.3162 92.4815C67.862 92.0273 67.6068 91.4113 67.6068 90.7689V81.7985C74.1833 81.0886 80.8171 81.0886 87.3936 81.7985Z" fill="url(#paint1_linear_345_85)"/>
<defs>
<linearGradient id="paint0_linear_345_85" x1="77.5001" y1="30.479" x2="77.5001" y2="124.521" gradientUnits="userSpaceOnUse">
<stop stop-color="#F87171"/>
<stop offset="1" stop-color="#D9A689"/>
</linearGradient>
<linearGradient id="paint1_linear_345_85" x1="77.5002" y1="76.4211" x2="77.5002" y2="109.538" gradientUnits="userSpaceOnUse">
<stop stop-color="#F87171"/>
<stop offset="1" stop-color="#D9A689"/>
</linearGradient>
</defs>
</svg>
