<svg width="156" height="155" viewBox="0 0 156 155" fill="none" xmlns="http://www.w3.org/2000/svg">
<path d="M68.8455 79.6104C68.6631 79.3498 68.4311 79.1278 68.1629 78.9569C67.8946 78.7859 67.5953 78.6695 67.2821 78.6143C66.9689 78.5591 66.6478 78.5661 66.3373 78.6349C66.0267 78.7038 65.7328 78.8331 65.4723 79.0156L62.3889 81.1745L49.7525 63.1281C52.4851 60.4713 54.1171 56.8828 54.3235 53.077C54.5299 49.2713 53.2955 45.5274 50.8661 42.5907C48.4368 39.6539 44.9906 37.7397 41.2136 37.2291C37.4366 36.7185 33.6059 37.649 30.4839 39.8353C27.362 42.0215 25.1779 45.3033 24.3663 49.0272C23.5548 52.7512 24.1754 56.6442 26.1045 59.9312C28.0337 63.2183 31.1299 65.6583 34.7768 66.7655C38.4238 67.8728 42.354 67.5661 45.785 65.9065L58.4211 83.9527L55.3377 86.1118C55.0771 86.2942 54.855 86.5262 54.6841 86.7944C54.5133 87.0627 54.3969 87.362 54.3417 87.6752C54.2865 87.9884 54.2935 88.3095 54.3624 88.62C54.4313 88.9305 54.5606 89.2244 54.7431 89.4849L87.6712 136.511C88.1525 137.202 88.7662 137.791 89.4766 138.244C90.187 138.696 90.9802 139.004 91.8102 139.148C92.1823 139.213 92.5595 139.247 92.9374 139.247C94.2492 139.246 95.5289 138.841 96.6013 138.085L100.199 135.567H100.199C101.592 134.591 102.54 133.102 102.836 131.428C103.131 129.753 102.749 128.029 101.773 126.636L68.8455 79.6104ZM30.6806 58.1655C29.5958 56.615 28.9565 54.7969 28.832 52.9087C28.7075 51.0205 29.1027 49.1342 29.9746 47.4547C30.8464 45.7752 32.1617 44.3666 33.7776 43.3819C35.3935 42.3971 37.2483 41.8738 39.1406 41.8688C39.7508 41.8691 40.3597 41.9227 40.9605 42.0289C42.3008 42.2615 43.5817 42.7576 44.729 43.4885C45.8762 44.2194 46.8672 45.1706 47.6443 46.287H47.6447C49.218 48.5366 49.8337 51.319 49.3562 54.0224C48.8788 56.7258 47.3473 59.129 45.0985 60.7036C42.8498 62.2782 40.0678 62.8953 37.3641 62.4194C34.6604 61.9434 32.2564 60.4132 30.6806 58.1653V58.1655Z" fill="url(#paint0_linear_243_231)"/>
<path d="M46.1571 47.3289C45.7887 46.8027 45.2264 46.4444 44.5938 46.3328C43.9612 46.2212 43.3102 46.3655 42.784 46.7339C42.2578 47.1023 41.8995 47.6646 41.788 48.2972C41.6764 48.9298 41.8207 49.5808 42.1891 50.107C42.7501 50.91 42.9696 51.9027 42.7995 52.8674C42.6294 53.8321 42.0835 54.6899 41.2817 55.2526C41.0212 55.435 40.7992 55.667 40.6283 55.9352C40.4574 56.2035 40.341 56.5027 40.2858 56.816C40.2306 57.1292 40.2376 57.4502 40.3064 57.7607C40.3753 58.0712 40.5046 58.3651 40.6871 58.6257C40.8695 58.8862 41.1015 59.1082 41.3697 59.2791C41.638 59.45 41.9372 59.5664 42.2505 59.6216C42.5637 59.6768 42.8847 59.6698 43.1952 59.601C43.5057 59.5321 43.7996 59.4028 44.0602 59.2203C45.913 57.9199 47.1744 55.9375 47.5675 53.7082C47.9606 51.4789 47.4534 49.1847 46.1571 47.3289Z" fill="url(#paint1_linear_243_231)"/>
<path d="M130.877 106.258L97.9482 59.2318C97.5798 58.7057 97.0175 58.3475 96.3849 58.236C95.7524 58.1245 95.1014 58.2688 94.5753 58.6372L91.4922 60.7961L73.0498 34.4579C72.6814 33.9318 72.1191 33.5735 71.4865 33.4619C70.854 33.3504 70.203 33.4947 69.6769 33.8631L66.5319 36.0653C65.9432 36.4784 65.2789 36.7715 64.5769 36.9277C63.8749 37.084 63.149 37.1003 62.4407 36.9758C61.7324 36.8514 61.0556 36.5885 60.4489 36.2023C59.8423 35.816 59.3177 35.314 58.9052 34.7249C58.4927 34.1358 58.2004 33.4712 58.0449 32.769C57.8894 32.0669 57.8739 31.3409 57.9991 30.6328C58.1244 29.9246 58.388 29.2481 58.7749 28.6418C59.1618 28.0356 59.6644 27.5116 60.254 27.0997L70.1647 20.1602C70.6908 19.7918 71.0491 19.2294 71.1606 18.5968C71.2721 17.9643 71.1278 17.3133 70.7594 16.7871C70.3909 16.261 69.8286 15.9027 69.196 15.7912C68.5634 15.6797 67.9124 15.824 67.3863 16.1924L57.4757 23.1319C55.2345 24.7013 53.7085 27.0967 53.2334 29.7912C52.7583 32.4857 53.3731 35.2586 54.9425 37.4998C56.5119 39.7411 58.9073 41.267 61.6018 41.7421C64.2963 42.2172 67.0692 41.6024 69.3104 40.033L70.4714 39.22L87.5244 63.5744L84.4411 65.7333C84.1806 65.9157 83.9585 66.1477 83.7877 66.4159C83.6168 66.6842 83.5004 66.9834 83.4452 67.2967C83.39 67.6099 83.397 67.9309 83.4659 68.2414C83.5348 68.5519 83.6642 68.8458 83.8466 69.1063L116.775 116.133C117.751 117.524 119.24 118.472 120.914 118.767C122.588 119.062 124.312 118.681 125.705 117.707L129.302 115.188C130.693 114.212 131.641 112.723 131.936 111.049C132.231 109.375 131.85 107.652 130.877 106.258Z" fill="url(#paint2_linear_243_231)"/>
<defs>
<linearGradient id="paint0_linear_243_231" x1="63.4759" y1="37.0924" x2="63.4759" y2="139.247" gradientUnits="userSpaceOnUse">
<stop stop-color="#F87171"/>
<stop offset="1" stop-color="#D9A689"/>
</linearGradient>
<linearGradient id="paint1_linear_243_231" x1="43.9732" y1="46.2959" x2="43.9732" y2="59.6584" gradientUnits="userSpaceOnUse">
<stop stop-color="#F87171"/>
<stop offset="1" stop-color="#D9A689"/>
</linearGradient>
<linearGradient id="paint2_linear_243_231" x1="92.555" y1="15.7544" x2="92.555" y2="118.865" gradientUnits="userSpaceOnUse">
<stop stop-color="#F87171"/>
<stop offset="1" stop-color="#D9A689"/>
</linearGradient>
</defs>
</svg>
