<svg width="156" height="155" viewBox="0 0 156 155" fill="none" xmlns="http://www.w3.org/2000/svg">
<path d="M126.815 79.3007L131.286 52.159C131.363 51.6913 131.301 51.2112 131.108 50.7783C130.915 50.3454 130.599 49.9788 130.199 49.7238C115.898 40.598 97.3604 35.5723 77.9999 35.5723C58.6394 35.5723 40.1014 40.598 25.8007 49.7238C25.4011 49.9788 25.0851 50.3454 24.8919 50.7783C24.6987 51.2112 24.6368 51.6913 24.7139 52.159L29.1853 79.3007L24.7243 102.783C24.634 103.258 24.6882 103.75 24.8801 104.194C25.072 104.639 25.3926 105.016 25.8007 105.276C40.1014 114.402 58.6394 119.428 77.9999 119.428C97.3604 119.428 115.898 114.402 130.199 105.276C130.607 105.016 130.928 104.639 131.12 104.194C131.312 103.75 131.366 103.258 131.276 102.783L126.815 79.3007ZM106.594 77.3706V70.4206C106.596 68.5898 107.324 66.8345 108.619 65.5399C109.913 64.2453 111.669 63.5171 113.499 63.5151H114.032C115.863 63.5171 117.618 64.2453 118.913 65.5399C120.208 66.8345 120.936 68.5898 120.938 70.4206V77.3706H106.594ZM120.938 82.2144V89.1644C120.936 90.9952 120.208 92.7504 118.913 94.0449C117.618 95.3395 115.863 96.0677 114.032 96.0697H113.499C111.669 96.0677 109.913 95.3395 108.619 94.0449C107.324 92.7504 106.596 90.9952 106.594 89.1644V82.2145L120.938 82.2144ZM65.2327 102.791H64.5081C61.7884 102.788 59.1809 101.706 57.2578 99.7833C55.3346 97.8602 54.2529 95.2528 54.2498 92.533V82.4783C54.2515 82.4088 54.2799 82.3427 54.329 82.2936C54.3782 82.2445 54.4443 82.2161 54.5138 82.2144H75.2271C75.2966 82.2161 75.3627 82.2444 75.4118 82.2936C75.461 82.3427 75.4894 82.4088 75.4911 82.4783V92.5329C75.488 95.2527 74.4062 97.8601 72.4831 99.7833C70.5599 101.706 67.9525 102.788 65.2327 102.791V102.791ZM90.7671 56.7938H91.4917C94.2114 56.7968 96.8189 57.8786 98.742 59.8017C100.665 61.7248 101.747 64.3323 101.75 67.052V77.1067C101.748 77.1762 101.72 77.2423 101.671 77.2914C101.622 77.3406 101.556 77.369 101.486 77.3707H80.7727C80.7032 77.369 80.6371 77.3406 80.588 77.2915C80.5388 77.2423 80.5104 77.1762 80.5087 77.1067V67.0519C80.5118 64.3322 81.5936 61.7248 83.5167 59.8016C85.4399 57.8785 88.0474 56.7968 90.7671 56.7937V56.7938ZM75.6649 77.1067C75.6632 77.1761 75.6349 77.2422 75.5858 77.2914C75.5367 77.3405 75.4707 77.3689 75.4012 77.3707H54.6879C54.6184 77.369 54.5523 77.3406 54.5031 77.2914C54.454 77.2423 54.4256 77.1762 54.4239 77.1067V67.0519C54.427 64.3322 55.5087 61.7248 57.4319 59.8016C59.3551 57.8785 61.9625 56.7968 64.6823 56.7937H65.4069C68.1266 56.7968 70.734 57.8786 72.6571 59.8017C74.5802 61.7248 75.6619 64.3323 75.6649 67.0519V77.1067ZM80.3349 82.4783C80.3366 82.4089 80.3649 82.3428 80.414 82.2937C80.4631 82.2446 80.5292 82.2162 80.5986 82.2145H101.312C101.381 82.2162 101.448 82.2445 101.497 82.2936C101.546 82.3428 101.574 82.4089 101.576 82.4783V92.533C101.573 95.2527 100.491 97.8602 98.5679 99.7833C96.6448 101.706 94.0373 102.788 91.3176 102.791H90.593C87.8733 102.788 85.2658 101.706 83.3427 99.7833C81.4196 97.8601 80.3379 95.2527 80.3349 92.533V82.4783ZM35.0619 77.3706V70.4206C35.0639 68.5898 35.7922 66.8345 37.0867 65.5399C38.3813 64.2453 40.1366 63.5171 41.9674 63.5151H42.5005C44.3313 63.5171 46.0866 64.2453 47.3811 65.5399C48.6757 66.8345 49.404 68.5898 49.406 70.4206V77.3706H35.0619ZM49.406 82.2144V89.1644C49.4039 90.9952 48.6757 92.7504 47.3811 94.0449C46.0865 95.3395 44.3313 96.0677 42.5005 96.0697H41.9674C40.1366 96.0677 38.3814 95.3395 37.0868 94.0449C35.7922 92.7504 35.064 90.9952 35.0619 89.1644V82.2145L49.406 82.2144Z" fill="url(#paint0_linear_259_96)"/>
<defs>
<linearGradient id="paint0_linear_259_96" x1="77.9999" y1="35.5723" x2="77.9999" y2="119.428" gradientUnits="userSpaceOnUse">
<stop stop-color="#F87171"/>
<stop offset="1" stop-color="#D9A689"/>
</linearGradient>
</defs>
</svg>
