<svg width="156" height="155" viewBox="0 0 156 155" fill="none" xmlns="http://www.w3.org/2000/svg">
<path d="M76.177 27.305C76.4043 27.5649 76.6846 27.7731 76.999 27.9158C77.3134 28.0584 77.6547 28.1322 77.9999 28.1322C78.3452 28.1322 78.6864 28.0584 79.0008 27.9158C79.3152 27.7731 79.5955 27.5649 79.8228 27.305L86.3773 19.8124C86.8002 19.3289 87.0137 18.6972 86.9709 18.0563C86.9281 17.4154 86.6324 16.8178 86.149 16.3949C85.6655 15.9719 85.0338 15.7584 84.3929 15.8012C83.752 15.844 83.1544 16.1397 82.7315 16.6232L80.4218 19.2634V7.97882C80.4218 7.3365 80.1666 6.72049 79.7124 6.2663C79.2582 5.81211 78.6422 5.55695 77.9999 5.55695C77.3576 5.55695 76.7416 5.81211 76.2874 6.2663C75.8332 6.72049 75.578 7.3365 75.578 7.97882V19.2634L73.2683 16.6232C72.8454 16.1397 72.2477 15.844 71.6068 15.8012C70.9659 15.7584 70.3342 15.972 69.8507 16.3949C69.3673 16.8179 69.0716 17.4155 69.0288 18.0565C68.986 18.6974 69.1996 19.3291 69.6225 19.8125L76.177 27.305Z" fill="url(#paint0_linear_243_247)"/>
<path d="M137.715 112.828C130.718 109.901 123.515 107.491 116.165 105.618L121.122 80.1828C122.305 74.2468 121.772 68.0966 119.586 62.4525C117.4 56.8085 113.65 51.9044 108.776 48.3149C108.358 48.0032 107.85 47.8349 107.328 47.8351C106.806 47.8353 106.299 48.004 105.88 48.3161L96.5139 52.9035C94.1571 54.0569 92.1237 55.7773 90.5959 57.9105C87.2414 62.6123 82.768 65.2018 77.9998 65.2018C73.2316 65.2018 68.7585 62.6126 65.4041 57.9108C63.8763 55.7776 61.8428 54.0571 59.4861 52.9036L50.1191 48.3161C49.7009 48.004 49.1931 47.8353 48.6713 47.8351C48.1495 47.8349 47.6416 48.0032 47.2232 48.3149C42.3497 51.9044 38.6001 56.8084 36.4136 62.4524C34.2272 68.0964 33.6945 74.2466 34.8779 80.1824L39.8346 105.616C32.6085 107.459 25.5246 109.82 18.638 112.681L18.2898 112.826C17.8478 113.01 17.4701 113.32 17.2044 113.718C16.9386 114.116 16.7968 114.584 16.7969 115.063V146.416C16.7969 147.058 17.052 147.674 17.5062 148.128C17.9604 148.582 18.5764 148.838 19.2188 148.838H136.781C137.423 148.838 138.039 148.582 138.493 148.128C138.948 147.674 139.203 147.058 139.203 146.416V115.063C139.203 114.585 139.061 114.118 138.797 113.721C138.532 113.323 138.156 113.013 137.715 112.828ZM48.9353 53.1297L57.3557 57.2536C58.9903 58.0527 60.401 59.2452 61.4611 60.7241C65.6875 66.6481 71.7157 70.0456 77.9998 70.0456C84.2839 70.0456 90.3125 66.6478 94.5391 60.7238C95.5991 59.2451 97.0097 58.0527 98.6443 57.2536L107.064 53.1299C110.832 56.237 113.686 60.3074 115.325 64.9079C116.963 69.5083 117.323 74.4669 116.368 79.2559L106.604 129.353C106.31 130.86 105.521 132.225 104.362 133.231C103.203 134.237 101.74 134.827 100.207 134.906C98.6739 134.985 97.1586 134.548 95.9021 133.666C94.6457 132.785 93.7205 131.508 93.2737 130.039L87.2625 110.279C86.6583 108.293 85.4318 106.554 83.7641 105.318C82.0963 104.082 80.0755 103.415 77.9998 103.415C75.924 103.415 73.9032 104.082 72.2355 105.318C70.5677 106.554 69.3413 108.293 68.7371 110.279L62.7259 130.039C62.279 131.508 61.3537 132.784 60.0973 133.666C58.8409 134.548 57.3255 134.984 55.7925 134.906C54.2594 134.827 52.7969 134.237 51.6376 133.231C50.4784 132.225 49.6891 130.86 49.3954 129.353L39.632 79.2556C38.6764 74.4666 39.0369 69.5081 40.6751 64.9077C42.3132 60.3072 45.1678 56.2369 48.9352 53.1297H48.9353Z" fill="url(#paint1_linear_243_247)"/>
<path d="M46.6286 38.5444C46.8691 38.9482 47.2219 39.2734 47.6441 39.4801L57.3556 44.236C58.9901 45.0353 60.4007 46.2278 61.4608 47.7065C65.6873 53.6305 71.7155 57.028 77.9996 57.028C84.2837 57.028 90.3122 53.6302 94.5388 47.7062C95.5989 46.2275 97.0095 45.0351 98.6441 44.236L108.355 39.4801C108.777 39.2734 109.13 38.9482 109.371 38.5444L109.439 38.4299C109.745 37.9157 109.85 37.3063 109.734 36.7192C109.617 36.1321 109.287 35.6089 108.808 35.2506C108.3 34.8714 107.867 34.563 107.443 34.2795C101.885 30.5633 94.9302 29.7071 88.3391 31.9209C88.2899 31.9342 88.2407 31.9495 88.1917 31.9661C87.0725 32.3507 85.9838 32.819 84.9348 33.3668C82.7872 34.4624 80.4106 35.0336 77.9997 35.0337C75.5888 35.0337 73.2121 34.4626 71.0645 33.3671C70.2115 32.9213 69.332 32.5282 68.4309 32.1902C68.3279 32.1515 68.2236 32.118 68.1182 32.0897C68.0435 32.0549 67.9671 32.0239 67.8893 31.9968C61.2306 29.6847 54.1842 30.5169 48.5562 34.2794C48.1316 34.5636 47.6979 34.8719 47.1913 35.2506C46.7119 35.6089 46.3821 36.1321 46.2656 36.7191C46.1491 37.3062 46.2541 37.9157 46.5604 38.4299L46.6286 38.5444ZM65.5239 36.3218C65.9514 36.6588 66.4799 36.8422 67.0243 36.8425H67.0339C67.6435 37.0835 68.2401 37.3564 68.821 37.6602C71.6612 39.1174 74.8074 39.8775 77.9996 39.8775C81.1917 39.8775 84.338 39.1174 87.1781 37.6602C87.9706 37.2461 88.7917 36.8893 89.6352 36.5926C89.6788 36.5802 89.7225 36.5666 89.7659 36.5518C93.8805 35.0836 98.401 35.245 102.4 37.0029L96.5138 39.886C94.1571 41.0393 92.1236 42.7598 90.5959 44.8929C87.2412 49.5947 82.7678 52.1842 77.9996 52.1842C73.2314 52.1842 68.7583 49.5951 65.4039 44.8932C63.8761 42.76 61.8426 41.0395 59.4859 39.886L53.5983 37.0026C57.3605 35.3415 61.5971 35.0996 65.5239 36.3218Z" fill="url(#paint2_linear_243_247)"/>
<defs>
<linearGradient id="paint0_linear_243_247" x1="77.9999" y1="5.55695" x2="77.9999" y2="28.1322" gradientUnits="userSpaceOnUse">
<stop stop-color="#F87171"/>
<stop offset="1" stop-color="#D9A689"/>
</linearGradient>
<linearGradient id="paint1_linear_243_247" x1="77.9998" y1="47.8351" x2="77.9998" y2="148.838" gradientUnits="userSpaceOnUse">
<stop stop-color="#F87171"/>
<stop offset="1" stop-color="#D9A689"/>
</linearGradient>
<linearGradient id="paint2_linear_243_247" x1="77.9996" y1="30.7108" x2="77.9996" y2="57.028" gradientUnits="userSpaceOnUse">
<stop stop-color="#F87171"/>
<stop offset="1" stop-color="#D9A689"/>
</linearGradient>
</defs>
</svg>
