<svg width="156" height="155" viewBox="0 0 156 155" fill="none" xmlns="http://www.w3.org/2000/svg">
<path d="M131.112 117.354L119.001 95.4375C123.779 92.112 127.155 87.1333 128.477 81.4635C129.798 75.7937 128.971 69.8353 126.156 64.7397C123.239 59.431 118.375 55.4625 112.588 53.6711C111.805 49.4053 110.174 45.3399 107.792 41.7153C105.41 38.0906 102.326 34.9803 98.7209 32.5682C92.0161 28.0672 83.3007 27.6857 75.9758 31.5708C73.7754 32.7097 71.3339 33.3042 68.8563 33.3042C66.3786 33.3042 63.9371 32.7097 61.7368 31.5708C54.4113 27.6854 45.6958 28.0675 38.9916 32.5682C33.6758 36.1219 29.5297 41.1683 27.0749 47.0726C24.6201 52.9769 23.9662 59.4753 25.1956 65.7503L35.0882 116.51C35.5939 119.105 36.9531 121.456 38.9496 123.189C40.946 124.922 43.4648 125.937 46.1049 126.073C48.7451 126.208 51.3548 125.457 53.5186 123.938C55.6824 122.42 57.2758 120.22 58.0453 117.691L64.1359 97.6702C64.4437 96.6581 65.0687 95.7718 65.9186 95.142C66.7685 94.5122 67.7984 94.1722 68.8562 94.1722C69.914 94.1722 70.9439 94.5122 71.7938 95.142C72.6437 95.7718 73.2687 96.6581 73.5765 97.6702L79.6675 117.691C80.437 120.22 82.0304 122.419 84.1942 123.938C86.3579 125.457 88.9677 126.208 91.6078 126.072C94.2479 125.937 96.7667 124.921 98.7631 123.188C100.76 121.455 102.119 119.104 102.625 116.51L105.911 99.6443C108.954 99.6049 111.961 98.9712 114.761 97.7788L126.872 119.696C127.025 119.976 127.232 120.224 127.48 120.424C127.729 120.624 128.015 120.773 128.321 120.863C128.628 120.952 128.949 120.98 129.266 120.945C129.584 120.909 129.891 120.812 130.17 120.657C130.45 120.503 130.696 120.295 130.895 120.045C131.093 119.795 131.241 119.508 131.328 119.201C131.416 118.894 131.442 118.573 131.404 118.256C131.367 117.939 131.268 117.632 131.112 117.353L131.112 117.354ZM94.178 55.5253C89.9487 57.86 86.5409 61.4404 84.4177 65.7797C82.2945 70.119 81.5589 75.0069 82.3108 79.7789C83.0628 84.5509 85.2658 88.9757 88.6206 92.4518C91.9753 95.928 96.319 98.2869 101.061 99.2079L97.8699 115.583C97.571 117.117 96.7676 118.506 95.5876 119.531C94.4077 120.555 92.919 121.155 91.3586 121.235C89.7981 121.315 88.2557 120.871 86.9768 119.974C85.698 119.076 84.7562 117.776 84.3014 116.281L78.2107 96.2605C77.6006 94.2548 76.362 92.4984 74.6777 91.2503C72.9934 90.0021 70.9525 89.3284 68.8562 89.3284C66.7598 89.3284 64.719 90.0021 63.0347 91.2503C61.3504 92.4984 60.1118 94.2548 59.5017 96.2605L53.4111 116.281C52.9564 117.776 52.0145 119.076 50.7356 119.974C49.4567 120.872 47.9143 121.316 46.3538 121.235C44.7934 121.155 43.3046 120.555 42.1246 119.531C40.9447 118.506 40.1412 117.117 39.8423 115.583L29.9499 64.8233C28.9043 59.4839 29.4612 53.9545 31.5504 48.9307C33.6397 43.907 37.168 39.6133 41.6915 36.5899C46.9106 33.086 53.7216 32.8027 59.4672 35.8501C62.3666 37.3598 65.5874 38.1481 68.8563 38.1481C72.1253 38.1481 75.346 37.3598 78.2454 35.8501C83.991 32.8025 90.802 33.0864 96.0212 36.5899C101.662 40.3648 105.716 46.0843 107.409 52.6571C102.812 52.2867 98.2085 53.2846 94.178 55.5253ZM114.767 88.9124C114.205 89.2192 113.545 89.291 112.93 89.1121C112.315 88.9333 111.796 88.5183 111.487 87.958C111.177 87.3977 111.102 86.7376 111.278 86.122C111.453 85.5064 111.866 84.9854 112.424 84.6729C114.506 83.5225 116.046 81.5921 116.704 79.3066C117.363 77.0211 117.087 74.5675 115.936 72.4857C115.78 72.2071 115.681 71.9005 115.643 71.5834C115.606 71.2663 115.632 70.9449 115.72 70.6379C115.807 70.3308 115.954 70.0441 116.153 69.7942C116.352 69.5442 116.598 69.3361 116.877 69.1817C117.157 69.0272 117.464 68.9296 117.782 68.8943C118.099 68.8591 118.42 68.887 118.727 68.9763C119.033 69.0657 119.319 69.2147 119.568 69.415C119.816 69.6152 120.023 69.8626 120.176 70.143C121.053 71.7306 121.609 73.4754 121.812 75.2778C122.015 77.0803 121.861 78.9051 121.359 80.648C120.857 82.3909 120.016 84.0179 118.885 85.4359C117.754 86.8539 116.355 88.0353 114.767 88.9125V88.9124Z" fill="url(#paint0_linear_244_305)"/>
<defs>
<linearGradient id="paint0_linear_244_305" x1="78.0059" y1="28.9034" x2="78.0059" y2="126.088" gradientUnits="userSpaceOnUse">
<stop stop-color="#F87171"/>
<stop offset="1" stop-color="#D9A689"/>
</linearGradient>
</defs>
</svg>
