<svg width="155" height="155" viewBox="0 0 155 155" fill="none" xmlns="http://www.w3.org/2000/svg">
<path d="M13.9865 20.2953C13.923 20.2952 13.8595 20.2971 13.7963 20.3012C12.8841 20.3652 12.0532 20.8495 11.5464 21.6107C10.6394 22.9651 11.0008 24.798 12.3541 25.7065L30.082 37.5272C31.4423 38.4288 33.2768 38.0572 34.1779 36.697C35.0816 35.3381 34.7122 33.5039 33.3529 32.601L15.625 20.8037C15.1411 20.4751 14.5709 20.299 13.9865 20.2953ZM141.018 20.3012C140.428 20.2993 139.852 20.4742 139.362 20.8037L121.635 32.6012C120.281 33.5102 119.92 35.3427 120.827 36.697C121.728 38.0619 123.567 38.4342 124.929 37.5272L142.656 25.7067C144.008 24.7969 144.367 22.9635 143.458 21.6107C142.913 20.797 141.998 20.3056 141.018 20.3012ZM59.036 22.4588C50.744 22.4588 43.6475 28.5261 42.1158 36.783L42.1615 36.5696L27.3758 92.4934C27.3613 92.5758 27.3457 92.6398 27.3356 92.7121C26.6945 96.1683 27.5409 99.5088 29.297 102.219H24.3242C21.8629 102.219 19.1782 103.233 16.7785 105.467C14.3788 107.701 12.5268 111.294 12.5268 115.955V120.968C12.5268 125.582 14.2771 129.18 16.6516 131.433C19.0261 133.687 21.8017 134.704 24.3242 134.704C59.7685 134.704 95.2185 134.704 130.663 134.704C133.185 134.704 135.984 133.687 138.359 131.433C140.733 129.18 142.478 125.582 142.478 120.968V115.955C142.478 111.294 140.626 107.701 138.226 105.467C135.826 103.234 133.124 102.219 130.663 102.219H125.713C127.469 99.5088 128.316 96.1683 127.674 92.7121C127.66 92.6755 127.644 92.63 127.629 92.6007L115.116 36.7805C113.584 28.5236 106.465 22.4563 98.1727 22.4563L59.036 22.4588ZM59.036 28.3661H98.1724C103.591 28.3661 108.261 32.3014 109.295 37.8733C109.301 37.9099 109.309 37.9557 109.319 37.985L121.854 93.7817C122.683 98.2487 119.456 102.222 115.163 102.222H86.3579V75.6213H92.2653C95.4929 75.6213 98.1726 72.9588 98.1727 69.7313V60.8585C98.1726 57.631 95.4928 54.9513 92.2653 54.9513H86.3579C86.3311 54.9513 86.3044 54.9566 86.2776 54.9571C85.8729 50.463 82.0957 46.8807 77.5031 46.8807C72.9104 46.8807 69.1181 50.463 68.7112 54.9571C68.6844 54.9569 68.6577 54.9513 68.6309 54.9513H62.7465C59.5191 54.9513 56.8334 57.631 56.8334 60.8585V69.7313C56.8334 72.9588 59.5189 75.6213 62.7465 75.6213H68.6308V102.222H39.8497C35.5566 102.222 32.3291 98.2487 33.1578 93.7817L47.8743 38.0945C47.8921 38.0305 47.9078 37.949 47.92 37.8758C48.9537 32.304 53.6178 28.3661 59.036 28.3661ZM65.6876 34.2792C57.433 34.2792 50.3119 40.1659 48.7674 48.2747L42.0292 73.2424C41.6077 74.8198 42.5457 76.44 44.1234 76.8596C45.6936 77.2825 47.3105 76.357 47.7405 74.7886L54.5247 49.6071C54.5393 49.5247 54.5548 49.4607 54.5649 49.3884C55.5857 44.0291 60.2317 40.1871 65.6874 40.1871C67.3186 40.1807 68.6359 38.853 68.6295 37.2219C68.6236 35.5996 67.3099 34.2855 65.6876 34.2792ZM76.0197 34.2792C74.3974 34.2855 73.0839 35.599 73.0776 37.2213C73.0717 38.8526 74.3884 40.1802 76.0197 40.1865H80.4503C82.0906 40.1931 83.4219 38.8615 83.4155 37.2213C83.4095 35.59 82.0815 34.2728 80.4503 34.2792H76.0197ZM13.4039 46.8785C11.7703 46.8817 10.4496 48.2102 10.4559 49.8437C10.4589 51.4705 11.7771 52.7884 13.4039 52.7917H28.7723C30.3968 52.7855 31.7113 51.4683 31.7144 49.8437C31.7203 48.2124 30.4036 46.8848 28.7723 46.8785H13.4039ZM126.238 46.8785C124.605 46.8817 123.284 48.2102 123.29 49.8437C123.293 51.4705 124.611 52.7884 126.238 52.7917H141.607C143.231 52.7852 144.546 51.4683 144.549 49.8437C144.555 48.2124 143.238 46.8848 141.607 46.8785H126.238ZM77.5023 52.7917C79.1686 52.7917 80.4503 54.0674 80.4503 55.7337V102.22H74.5371V55.7337C74.5371 54.0674 75.8361 52.7917 77.5023 52.7917ZM62.7455 60.8566H68.6297V69.7291H62.7455V60.8566ZM86.3576 60.8566H92.265V69.7291H86.3576V60.8566ZM129.042 61.641C128.038 61.6959 127.13 62.2517 126.63 63.1237C125.818 64.5384 126.306 66.3436 127.721 67.1561L141.693 75.2269C143.103 76.0415 144.907 75.5617 145.726 74.1539C146.539 72.7409 146.054 70.936 144.641 70.1216L130.663 62.0567C130.246 61.8077 129.775 61.6651 129.29 61.6413C129.208 61.6377 129.125 61.6374 129.042 61.641ZM25.6859 61.6502C25.6319 61.6526 25.5781 61.6565 25.5243 61.6594C25.1007 61.7052 24.6914 61.836 24.3244 62.0511L10.3463 70.1163C8.94 70.9364 8.46265 72.74 9.27905 74.1486C10.0974 75.557 11.9015 76.0372 13.3115 75.2216L27.2896 67.1519C28.7043 66.3391 29.1925 64.5338 28.38 63.1193C27.8273 62.1636 26.7882 61.5989 25.6859 61.6502ZM24.3244 108.125C59.8074 108.17 95.1781 108.125 130.663 108.125C131.155 108.125 132.901 108.577 134.194 109.78C135.486 110.983 136.57 112.775 136.57 115.953V120.966C136.57 124.169 135.52 125.985 134.28 127.162C133.04 128.339 131.403 128.795 130.663 128.795C95.2187 128.795 59.7687 128.795 24.3244 128.795C23.5845 128.795 21.9477 128.339 20.7073 127.162C19.467 125.985 18.4401 124.169 18.4401 120.966V115.953C18.4401 112.775 19.5246 110.983 20.8169 109.78C22.1093 108.577 23.8321 108.125 24.3244 108.125Z" fill="url(#paint0_linear_345_96)"/>
<defs>
<linearGradient id="paint0_linear_345_96" x1="77.5002" y1="20.2953" x2="77.5002" y2="134.704" gradientUnits="userSpaceOnUse">
<stop stop-color="#F87171"/>
<stop offset="1" stop-color="#D9A689"/>
</linearGradient>
</defs>
</svg>
