<svg width="45" height="13" viewBox="0 0 45 13" fill="none" xmlns="http://www.w3.org/2000/svg">
<path d="M6.44 6.272C7.06933 6.38933 7.58667 6.704 7.992 7.216C8.39733 7.728 8.6 8.31467 8.6 8.976C8.6 9.57333 8.45067 10.1013 8.152 10.56C7.864 11.008 7.44267 11.36 6.888 11.616C6.33333 11.872 5.67733 12 4.92 12H0.104V0.832H4.712C5.46933 0.832 6.12 0.954666 6.664 1.2C7.21867 1.44533 7.63467 1.78667 7.912 2.224C8.2 2.66133 8.344 3.15733 8.344 3.712C8.344 4.36267 8.168 4.90667 7.816 5.344C7.47467 5.78133 7.016 6.09067 6.44 6.272ZM2.344 5.44H4.392C4.92533 5.44 5.336 5.32267 5.624 5.088C5.912 4.84267 6.056 4.496 6.056 4.048C6.056 3.6 5.912 3.25333 5.624 3.008C5.336 2.76267 4.92533 2.64 4.392 2.64H2.344V5.44ZM4.6 10.176C5.144 10.176 5.56533 10.048 5.864 9.792C6.17333 9.536 6.328 9.17333 6.328 8.704C6.328 8.224 6.168 7.85067 5.848 7.584C5.528 7.30667 5.096 7.168 4.552 7.168H2.344V10.176H4.6ZM14.3213 12.144C13.4679 12.144 12.6999 11.9573 12.0173 11.584C11.3346 11.2 10.7959 10.6613 10.4013 9.968C10.0173 9.27467 9.82525 8.47467 9.82525 7.568C9.82525 6.66133 10.0226 5.86133 10.4173 5.168C10.8226 4.47467 11.3719 3.94133 12.0653 3.568C12.7586 3.184 13.5319 2.992 14.3853 2.992C15.2386 2.992 16.0119 3.184 16.7053 3.568C17.3986 3.94133 17.9426 4.47467 18.3373 5.168C18.7426 5.86133 18.9453 6.66133 18.9453 7.568C18.9453 8.47467 18.7373 9.27467 18.3212 9.968C17.9159 10.6613 17.3613 11.2 16.6573 11.584C15.9639 11.9573 15.1853 12.144 14.3213 12.144ZM14.3213 10.192C14.7266 10.192 15.1053 10.096 15.4573 9.904C15.8199 9.70133 16.1079 9.40267 16.3213 9.008C16.5346 8.61333 16.6413 8.13333 16.6413 7.568C16.6413 6.72533 16.4173 6.08 15.9693 5.632C15.5319 5.17333 14.9933 4.944 14.3533 4.944C13.7133 4.944 13.1746 5.17333 12.7373 5.632C12.3106 6.08 12.0973 6.72533 12.0973 7.568C12.0973 8.41067 12.3053 9.06133 12.7213 9.52C13.1479 9.968 13.6813 10.192 14.3213 10.192ZM23.1964 4.976V9.264C23.1964 9.56267 23.2657 9.78133 23.4044 9.92C23.5537 10.048 23.799 10.112 24.1404 10.112H25.1804V12H23.7724C21.8844 12 20.9404 11.0827 20.9404 9.248V4.976H19.8844V3.136H20.9404V0.943999H23.1964V3.136H25.1804V4.976H23.1964ZM30.7275 12.144C29.8742 12.144 29.1062 11.9573 28.4235 11.584C27.7408 11.2 27.2022 10.6613 26.8075 9.968C26.4235 9.27467 26.2315 8.47467 26.2315 7.568C26.2315 6.66133 26.4288 5.86133 26.8235 5.168C27.2288 4.47467 27.7782 3.94133 28.4715 3.568C29.1648 3.184 29.9382 2.992 30.7915 2.992C31.6448 2.992 32.4182 3.184 33.1115 3.568C33.8048 3.94133 34.3488 4.47467 34.7435 5.168C35.1488 5.86133 35.3515 6.66133 35.3515 7.568C35.3515 8.47467 35.1435 9.27467 34.7275 9.968C34.3222 10.6613 33.7675 11.2 33.0635 11.584C32.3702 11.9573 31.5915 12.144 30.7275 12.144ZM30.7275 10.192C31.1328 10.192 31.5115 10.096 31.8635 9.904C32.2262 9.70133 32.5142 9.40267 32.7275 9.008C32.9408 8.61333 33.0475 8.13333 33.0475 7.568C33.0475 6.72533 32.8235 6.08 32.3755 5.632C31.9382 5.17333 31.3995 4.944 30.7595 4.944C30.1195 4.944 29.5808 5.17333 29.1435 5.632C28.7168 6.08 28.5035 6.72533 28.5035 7.568C28.5035 8.41067 28.7115 9.06133 29.1275 9.52C29.5542 9.968 30.0875 10.192 30.7275 10.192ZM41.8906 12L40.0666 9.248L38.4506 12H36.0506L38.9466 7.552L36.0186 3.136H38.5466L40.3546 5.872L41.9866 3.136H44.3866L41.4746 7.552L44.4186 12H41.8906Z" fill="#1D1D1F"/>
</svg>
