<svg width="66" height="18" viewBox="0 0 66 18" fill="none" xmlns="http://www.w3.org/2000/svg">
<path d="M9.728 8.432C10.624 8.592 11.384 9.064 12.008 9.848C12.632 10.632 12.944 11.52 12.944 12.512C12.944 13.36 12.72 14.128 12.272 14.816C11.84 15.488 11.208 16.024 10.376 16.424C9.544 16.808 8.576 17 7.472 17H0.8V0.319999H7.16C8.296 0.319999 9.272 0.511999 10.088 0.896C10.904 1.28 11.52 1.8 11.936 2.456C12.352 3.096 12.56 3.816 12.56 4.616C12.56 5.576 12.304 6.376 11.792 7.016C11.28 7.656 10.592 8.128 9.728 8.432ZM3.536 7.328H6.92C7.816 7.328 8.512 7.128 9.008 6.728C9.52 6.312 9.776 5.72 9.776 4.952C9.776 4.2 9.52 3.616 9.008 3.2C8.512 2.768 7.816 2.552 6.92 2.552H3.536V7.328ZM7.232 14.768C8.16 14.768 8.888 14.544 9.416 14.096C9.944 13.648 10.208 13.024 10.208 12.224C10.208 11.408 9.928 10.76 9.368 10.28C8.808 9.8 8.064 9.56 7.136 9.56H3.536V14.768H7.232ZM21.6532 17.216C20.4052 17.216 19.2772 16.936 18.2692 16.376C17.2612 15.8 16.4692 15 15.8932 13.976C15.3172 12.936 15.0292 11.736 15.0292 10.376C15.0292 9.032 15.3252 7.84 15.9172 6.8C16.5092 5.76 17.3172 4.96 18.3412 4.4C19.3652 3.84 20.5092 3.56 21.7732 3.56C23.0372 3.56 24.1812 3.84 25.2052 4.4C26.2292 4.96 27.0372 5.76 27.6292 6.8C28.2212 7.84 28.5172 9.032 28.5172 10.376C28.5172 11.72 28.2132 12.912 27.6052 13.952C26.9972 14.992 26.1652 15.8 25.1092 16.376C24.0692 16.936 22.9172 17.216 21.6532 17.216ZM21.6532 14.84C22.3572 14.84 23.0132 14.672 23.6212 14.336C24.2452 14 24.7492 13.496 25.1332 12.824C25.5172 12.152 25.7092 11.336 25.7092 10.376C25.7092 9.416 25.5252 8.608 25.1572 7.952C24.7892 7.28 24.3012 6.776 23.6932 6.44C23.0852 6.104 22.4292 5.936 21.7252 5.936C21.0212 5.936 20.3652 6.104 19.7572 6.44C19.1652 6.776 18.6932 7.28 18.3412 7.952C17.9892 8.608 17.8132 9.416 17.8132 10.376C17.8132 11.8 18.1732 12.904 18.8932 13.688C19.6292 14.456 20.5492 14.84 21.6532 14.84ZM34.4139 6.008V13.328C34.4139 13.824 34.5259 14.184 34.7499 14.408C34.9899 14.616 35.3899 14.72 35.9499 14.72H37.6299V17H35.4699C34.2379 17 33.2939 16.712 32.6379 16.136C31.9819 15.56 31.6539 14.624 31.6539 13.328V6.008H30.0939V3.776H31.6539V0.487999H34.4139V3.776H37.6299V6.008H34.4139ZM45.8876 17.216C44.6396 17.216 43.5116 16.936 42.5036 16.376C41.4956 15.8 40.7036 15 40.1276 13.976C39.5516 12.936 39.2636 11.736 39.2636 10.376C39.2636 9.032 39.5596 7.84 40.1516 6.8C40.7436 5.76 41.5516 4.96 42.5756 4.4C43.5996 3.84 44.7436 3.56 46.0076 3.56C47.2716 3.56 48.4156 3.84 49.4396 4.4C50.4636 4.96 51.2716 5.76 51.8636 6.8C52.4556 7.84 52.7516 9.032 52.7516 10.376C52.7516 11.72 52.4476 12.912 51.8396 13.952C51.2316 14.992 50.3996 15.8 49.3436 16.376C48.3036 16.936 47.1516 17.216 45.8876 17.216ZM45.8876 14.84C46.5916 14.84 47.2476 14.672 47.8556 14.336C48.4796 14 48.9836 13.496 49.3676 12.824C49.7516 12.152 49.9436 11.336 49.9436 10.376C49.9436 9.416 49.7596 8.608 49.3916 7.952C49.0236 7.28 48.5356 6.776 47.9276 6.44C47.3196 6.104 46.6636 5.936 45.9596 5.936C45.2556 5.936 44.5996 6.104 43.9916 6.44C43.3996 6.776 42.9276 7.28 42.5756 7.952C42.2236 8.608 42.0476 9.416 42.0476 10.376C42.0476 11.8 42.4076 12.904 43.1276 13.688C43.8636 14.456 44.7836 14.84 45.8876 14.84ZM61.1203 10.304L65.3923 17H62.2963L59.4403 12.512L56.7523 17H53.8963L58.1683 10.496L53.8963 3.776H56.9923L59.8483 8.264L62.5363 3.776H65.3923L61.1203 10.304Z" fill="#1D1D1F"/>
</svg>
