<svg width="44" height="13" viewBox="0 0 44 13" fill="none" xmlns="http://www.w3.org/2000/svg">
<path d="M6.152 6.288C6.74933 6.39467 7.256 6.70933 7.672 7.232C8.088 7.75467 8.296 8.34667 8.296 9.008C8.296 9.57333 8.14667 10.0853 7.848 10.544C7.56 10.992 7.13867 11.3493 6.584 11.616C6.02933 11.872 5.384 12 4.648 12H0.2V0.879999H4.44C5.19733 0.879999 5.848 1.008 6.392 1.264C6.936 1.52 7.34667 1.86667 7.624 2.304C7.90133 2.73067 8.04 3.21067 8.04 3.744C8.04 4.384 7.86933 4.91733 7.528 5.344C7.18667 5.77067 6.728 6.08533 6.152 6.288ZM2.024 5.552H4.28C4.87733 5.552 5.34133 5.41867 5.672 5.152C6.01333 4.87467 6.184 4.48 6.184 3.968C6.184 3.46667 6.01333 3.07733 5.672 2.8C5.34133 2.512 4.87733 2.368 4.28 2.368H2.024V5.552ZM4.488 10.512C5.10667 10.512 5.592 10.3627 5.944 10.064C6.296 9.76533 6.472 9.34933 6.472 8.816C6.472 8.272 6.28533 7.84 5.912 7.52C5.53867 7.2 5.04267 7.04 4.424 7.04H2.024V10.512H4.488ZM14.1021 12.144C13.2701 12.144 12.5181 11.9573 11.8461 11.584C11.1741 11.2 10.6461 10.6667 10.2621 9.984C9.87813 9.29067 9.68613 8.49067 9.68613 7.584C9.68613 6.688 9.88346 5.89333 10.2781 5.2C10.6728 4.50667 11.2115 3.97333 11.8941 3.6C12.5768 3.22667 13.3395 3.04 14.1821 3.04C15.0248 3.04 15.7875 3.22667 16.4701 3.6C17.1528 3.97333 17.6915 4.50667 18.0861 5.2C18.4808 5.89333 18.6781 6.688 18.6781 7.584C18.6781 8.48 18.4755 9.27467 18.0701 9.968C17.6648 10.6613 17.1101 11.2 16.4061 11.584C15.7128 11.9573 14.9448 12.144 14.1021 12.144ZM14.1021 10.56C14.5715 10.56 15.0088 10.448 15.4141 10.224C15.8301 10 16.1661 9.664 16.4221 9.216C16.6781 8.768 16.8061 8.224 16.8061 7.584C16.8061 6.944 16.6835 6.40533 16.4381 5.968C16.1928 5.52 15.8675 5.184 15.4621 4.96C15.0568 4.736 14.6195 4.624 14.1501 4.624C13.6808 4.624 13.2435 4.736 12.8381 4.96C12.4435 5.184 12.1288 5.52 11.8941 5.968C11.6595 6.40533 11.5421 6.944 11.5421 7.584C11.5421 8.53333 11.7821 9.26933 12.2621 9.792C12.7528 10.304 13.3661 10.56 14.1021 10.56ZM22.6093 4.672V9.552C22.6093 9.88267 22.6839 10.1227 22.8333 10.272C22.9933 10.4107 23.2599 10.48 23.6333 10.48H24.7533V12H23.3133C22.4919 12 21.8626 11.808 21.4253 11.424C20.9879 11.04 20.7693 10.416 20.7693 9.552V4.672H19.7293V3.184H20.7693V0.992H22.6093V3.184H24.7533V4.672H22.6093ZM30.2584 12.144C29.4264 12.144 28.6744 11.9573 28.0024 11.584C27.3304 11.2 26.8024 10.6667 26.4184 9.984C26.0344 9.29067 25.8424 8.49067 25.8424 7.584C25.8424 6.688 26.0397 5.89333 26.4344 5.2C26.829 4.50667 27.3677 3.97333 28.0504 3.6C28.733 3.22667 29.4957 3.04 30.3384 3.04C31.181 3.04 31.9437 3.22667 32.6264 3.6C33.309 3.97333 33.8477 4.50667 34.2424 5.2C34.637 5.89333 34.8344 6.688 34.8344 7.584C34.8344 8.48 34.6317 9.27467 34.2264 9.968C33.821 10.6613 33.2664 11.2 32.5624 11.584C31.869 11.9573 31.101 12.144 30.2584 12.144ZM30.2584 10.56C30.7277 10.56 31.165 10.448 31.5704 10.224C31.9864 10 32.3224 9.664 32.5784 9.216C32.8344 8.768 32.9624 8.224 32.9624 7.584C32.9624 6.944 32.8397 6.40533 32.5944 5.968C32.349 5.52 32.0237 5.184 31.6184 4.96C31.213 4.736 30.7757 4.624 30.3064 4.624C29.837 4.624 29.3997 4.736 28.9944 4.96C28.5997 5.184 28.285 5.52 28.0504 5.968C27.8157 6.40533 27.6984 6.944 27.6984 7.584C27.6984 8.53333 27.9384 9.26933 28.4184 9.792C28.909 10.304 29.5224 10.56 30.2584 10.56ZM40.4135 7.536L43.2615 12H41.1975L39.2935 9.008L37.5015 12H35.5975L38.4455 7.664L35.5975 3.184H37.6615L39.5655 6.176L41.3575 3.184H43.2615L40.4135 7.536Z" fill="#1D1D1F"/>
</svg>
