<svg width="68" height="18" viewBox="0 0 68 18" fill="none" xmlns="http://www.w3.org/2000/svg">
<path d="M10.16 8.408C11.104 8.584 11.88 9.056 12.488 9.824C13.096 10.592 13.4 11.472 13.4 12.464C13.4 13.36 13.176 14.152 12.728 14.84C12.296 15.512 11.664 16.04 10.832 16.424C10 16.808 9.016 17 7.88 17H0.656V0.248H7.568C8.704 0.248 9.68 0.432 10.496 0.8C11.328 1.168 11.952 1.68 12.368 2.336C12.8 2.992 13.016 3.736 13.016 4.568C13.016 5.544 12.752 6.36 12.224 7.016C11.712 7.672 11.024 8.136 10.16 8.408ZM4.016 7.16H7.088C7.888 7.16 8.504 6.984 8.936 6.632C9.368 6.264 9.584 5.744 9.584 5.072C9.584 4.4 9.368 3.88 8.936 3.512C8.504 3.144 7.888 2.96 7.088 2.96H4.016V7.16ZM7.4 14.264C8.216 14.264 8.848 14.072 9.296 13.688C9.76 13.304 9.992 12.76 9.992 12.056C9.992 11.336 9.752 10.776 9.272 10.376C8.792 9.96 8.144 9.752 7.328 9.752H4.016V14.264H7.4ZM21.9819 17.216C20.7019 17.216 19.5499 16.936 18.5259 16.376C17.5019 15.8 16.6939 14.992 16.1019 13.952C15.5259 12.912 15.2379 11.712 15.2379 10.352C15.2379 8.992 15.5339 7.792 16.1259 6.752C16.7339 5.712 17.5579 4.912 18.5979 4.352C19.6379 3.776 20.7979 3.488 22.0779 3.488C23.3579 3.488 24.5179 3.776 25.5579 4.352C26.5979 4.912 27.4139 5.712 28.0059 6.752C28.6139 7.792 28.9179 8.992 28.9179 10.352C28.9179 11.712 28.6059 12.912 27.9819 13.952C27.3739 14.992 26.5419 15.8 25.4859 16.376C24.4459 16.936 23.2779 17.216 21.9819 17.216ZM21.9819 14.288C22.5899 14.288 23.1579 14.144 23.6859 13.856C24.2299 13.552 24.6619 13.104 24.9819 12.512C25.3019 11.92 25.4619 11.2 25.4619 10.352C25.4619 9.088 25.1259 8.12 24.4539 7.448C23.7979 6.76 22.9899 6.416 22.0299 6.416C21.0699 6.416 20.2619 6.76 19.6059 7.448C18.9659 8.12 18.6459 9.088 18.6459 10.352C18.6459 11.616 18.9579 12.592 19.5819 13.28C20.2219 13.952 21.0219 14.288 21.9819 14.288ZM35.2946 6.464V12.896C35.2946 13.344 35.3986 13.672 35.6066 13.88C35.8306 14.072 36.1986 14.168 36.7106 14.168H38.2706V17H36.1586C33.3266 17 31.9106 15.624 31.9106 12.872V6.464H30.3266V3.704H31.9106V0.415999H35.2946V3.704H38.2706V6.464H35.2946ZM46.5913 17.216C45.3113 17.216 44.1593 16.936 43.1353 16.376C42.1113 15.8 41.3033 14.992 40.7113 13.952C40.1353 12.912 39.8473 11.712 39.8473 10.352C39.8473 8.992 40.1433 7.792 40.7353 6.752C41.3433 5.712 42.1673 4.912 43.2073 4.352C44.2473 3.776 45.4073 3.488 46.6873 3.488C47.9673 3.488 49.1273 3.776 50.1673 4.352C51.2073 4.912 52.0233 5.712 52.6153 6.752C53.2233 7.792 53.5273 8.992 53.5273 10.352C53.5273 11.712 53.2153 12.912 52.5912 13.952C51.9833 14.992 51.1513 15.8 50.0953 16.376C49.0553 16.936 47.8873 17.216 46.5913 17.216ZM46.5913 14.288C47.1993 14.288 47.7673 14.144 48.2953 13.856C48.8393 13.552 49.2713 13.104 49.5913 12.512C49.9113 11.92 50.0713 11.2 50.0713 10.352C50.0713 9.088 49.7353 8.12 49.0633 7.448C48.4073 6.76 47.5993 6.416 46.6393 6.416C45.6793 6.416 44.8713 6.76 44.2153 7.448C43.5753 8.12 43.2553 9.088 43.2553 10.352C43.2553 11.616 43.5673 12.592 44.1913 13.28C44.8313 13.952 45.6313 14.288 46.5913 14.288ZM63.3359 17L60.5999 12.872L58.1759 17H54.5759L58.9199 10.328L54.5279 3.704H58.3199L61.0319 7.808L63.4799 3.704H67.0799L62.7119 10.328L67.1279 17H63.3359Z" fill="#1D1D1F"/>
</svg>
